# This file uses meters as units for non-parametric coordinates.

mtllib hoge kast.mtl
g default
v -7.319549 318.216736 80.383003
v 0.798479 318.216736 80.383003
v -7.319549 346.867859 80.383003
v 0.798479 346.867859 80.383003
v -7.319549 346.867859 63.169834
v 0.798479 346.867859 63.169834
v -7.319549 318.216736 63.169834
v 0.798479 318.216736 63.169834
v 101.165436 318.216736 80.383003
v 109.283463 318.216736 80.383003
v 101.165436 346.867859 80.383003
v 109.283463 346.867859 80.383003
v 101.165436 346.867859 63.169834
v 109.283463 346.867859 63.169834
v 101.165436 318.216736 63.169834
v 109.283463 318.216736 63.169834
v -142.195343 318.216736 80.383003
v -134.077301 318.216736 80.383003
v -142.195343 346.867859 80.383003
v -134.077301 346.867859 80.383003
v -142.195343 346.867859 63.169834
v -134.077301 346.867859 63.169834
v -142.195343 318.216736 63.169834
v -134.077301 318.216736 63.169834
v -28.731367 318.216736 80.383003
v -20.613340 318.216736 80.383003
v -28.731367 346.867859 80.383003
v -20.613340 346.867859 80.383003
v -28.731367 346.867859 63.169834
v -20.613340 346.867859 63.169834
v -28.731367 318.216736 63.169834
v -20.613340 318.216736 63.169834
v -220.587616 284.507385 64.929245
v 189.682587 284.507385 64.929245
v -220.587616 384.507385 64.929245
v 189.682587 384.507385 64.929245
v -220.587616 384.507385 7.944887
v 189.682587 384.507385 7.944887
v -220.587616 284.507385 7.944887
v 189.682587 284.507385 7.944887
v -15.452519 384.507385 7.944887
v -15.452519 384.507385 64.929245
v -15.452519 284.507385 64.929245
v -15.452519 284.507385 7.944887
v -118.020065 384.507385 7.944887
v -118.020065 384.507385 64.929245
v -118.020065 284.507385 64.929245
v -118.020065 284.507385 7.944887
v 87.115051 384.507385 7.944887
v 87.115051 384.507385 64.929245
v 87.115051 284.507385 64.929245
v 87.115051 284.507385 7.944887
v 96.843353 375.022583 64.929245
v 96.843353 293.992188 64.929245
v 179.954239 293.992188 64.929245
v 179.954239 375.022583 64.929245
v -210.859238 293.992188 64.929245
v -127.748375 293.992188 64.929245
v -127.748383 375.022583 64.929245
v -210.859238 375.022583 64.929245
v 96.843353 375.022583 71.373962
v 96.843353 293.992188 71.373962
v 179.954239 293.992188 71.373962
v 179.954239 375.022583 71.373962
v -210.859238 293.992188 71.373962
v -127.748375 293.992188 71.373962
v -127.748383 375.022583 71.373962
v -210.859238 375.022583 71.373962
v -109.291512 375.997345 64.929245
v -109.291512 293.017426 64.929245
v -15.452519 293.017426 64.929245
v -15.452519 375.997345 64.929245
v 78.386505 293.017426 64.929245
v 78.386505 375.997345 64.929245
v -109.291512 375.997345 71.790253
v -109.291512 293.017426 71.790253
v -15.452519 293.017426 71.790253
v -15.452519 375.997345 71.790253
v 78.386505 293.017426 71.790253
v 78.386505 375.997345 71.790253
vt 0.068455 0.515017
vt 0.110411 0.515017
vt 0.110411 0.584852
vt 0.068455 0.584852
vt 0.527505 0.457450
vt 0.569461 0.457450
vt 0.569461 0.527285
vt 0.527505 0.527285
vt 0.571799 0.457450
vt 0.613755 0.457450
vt 0.613755 0.527285
vt 0.571799 0.527285
vt 0.873806 0.405152
vt 0.915762 0.405152
vt 0.915762 0.474987
vt 0.873806 0.474987
vt 0.918101 0.457450
vt 0.960056 0.457450
vt 0.960056 0.527285
vt 0.918101 0.527285
vt 0.616094 0.457450
vt 0.658049 0.457450
vt 0.658049 0.527285
vt 0.616094 0.527285
vt 0.024161 0.515017
vt 0.066116 0.515017
vt 0.066116 0.584852
vt 0.024161 0.584852
vt 0.660388 0.457450
vt 0.702344 0.457450
vt 0.702344 0.527285
vt 0.660388 0.527285
vt 0.732870 0.405152
vt 0.871764 0.405152
vt 0.871764 0.648894
vt 0.732870 0.648894
vt 0.024161 0.271275
vt 0.163055 0.271275
vt 0.163055 0.515017
vt 0.024161 0.515017
vt 0.128856 0.221217
vt 0.128856 0.023712
vt 0.144565 0.023712
vt 0.144565 0.221217
vt 0.160672 0.023712
vt 0.160672 0.221217
vt 0.144963 0.221217
vt 0.144963 0.023712
vt 0.128458 0.023712
vt 0.128458 0.221217
vt 0.112749 0.221217
vt 0.112749 0.023712
vt 0.161070 0.221217
vt 0.161070 0.023712
vt 0.176779 0.023712
vt 0.176779 0.221217
vt 0.024161 0.225969
vt 0.024161 0.023712
vt 0.040884 0.023712
vt 0.040884 0.225969
vt 0.061017 0.023712
vt 0.061017 0.225969
vt 0.044294 0.225969
vt 0.044294 0.023712
vt 0.181204 0.410944
vt 0.200991 0.410944
vt 0.200991 0.452900
vt 0.181204 0.452900
vt 0.201338 0.410944
vt 0.221125 0.410944
vt 0.221125 0.452900
vt 0.201338 0.452900
vt 0.974475 0.041956
vt 0.994262 0.041956
vt 0.994262 0.083911
vt 0.974475 0.083911
vt 0.974475 0.000000
vt 0.994262 0.000000
vt 0.994262 0.041956
vt 0.974475 0.041956
vt 0.177177 0.163382
vt 0.196964 0.163382
vt 0.196964 0.205337
vt 0.177177 0.205337
vt 0.197311 0.163381
vt 0.217098 0.163381
vt 0.217098 0.205337
vt 0.197311 0.205337
vt 0.181204 0.452900
vt 0.200991 0.452900
vt 0.200991 0.494856
vt 0.181204 0.494856
vt 0.704682 0.457450
vt 0.724469 0.457450
vt 0.724469 0.499406
vt 0.704682 0.499406
vt 0.525463 0.250000
vt 0.386569 0.250000
vt 0.386569 0.000000
vt 0.525463 0.000000
vt 0.525463 0.500000
vt 0.386569 0.500000
vt 0.525463 0.750000
vt 0.386569 0.750000
vt 0.386569 1.000000
vt 0.525463 1.000000
vt 0.384527 0.250000
vt 0.245632 0.250000
vt 0.245632 0.000000
vt 0.384527 0.000000
vt 0.384527 0.500000
vt 0.245632 0.500000
vt 0.384527 0.750000
vt 0.245632 0.750000
vt 0.245632 1.000000
vt 0.384527 1.000000
vt 0.165097 0.473851
vt 0.165097 0.271275
vt 0.180806 0.271275
vt 0.180806 0.473851
vt 0.080137 0.023712
vt 0.080137 0.226288
vt 0.064428 0.226288
vt 0.064428 0.023712
vt 0.080535 0.226288
vt 0.080535 0.023712
vt 0.096244 0.023712
vt 0.096244 0.226288
vt 0.112351 0.023712
vt 0.112351 0.226288
vt 0.096642 0.226288
vt 0.096642 0.023712
vt 0.934208 0.457449
vt 0.934208 0.228724
vt 0.950931 0.228724
vt 0.950931 0.457449
vt 0.934208 0.000000
vt 0.950931 0.000000
vt 0.971065 0.228725
vt 0.971065 0.457450
vt 0.954341 0.457450
vt 0.954341 0.228725
vt 0.971065 0.000000
vt 0.954341 0.000000
vt 0.177177 0.093547
vt 0.196964 0.093547
vt 0.196964 0.163382
vt 0.177177 0.163382
vt 0.197311 0.093547
vt 0.217098 0.093547
vt 0.217098 0.163381
vt 0.197311 0.163381
vt 0.201338 0.341110
vt 0.221125 0.341110
vt 0.221125 0.410944
vt 0.201338 0.410944
vt 0.181204 0.271275
vt 0.200991 0.271275
vt 0.200991 0.341110
vt 0.181204 0.341110
vt 0.197311 0.023712
vt 0.217098 0.023712
vt 0.217098 0.093547
vt 0.197311 0.093547
vt 0.177177 0.023712
vt 0.196964 0.023712
vt 0.196964 0.093547
vt 0.177177 0.093547
vt 0.201338 0.271275
vt 0.221125 0.271275
vt 0.221125 0.341110
vt 0.201338 0.341110
vt 0.181204 0.341110
vt 0.200991 0.341110
vt 0.200991 0.410944
vt 0.181204 0.410944
vt 0.930375 0.202576
vt 0.732870 0.202576
vt 0.732870 0.000000
vt 0.930375 0.000000
vt 0.729762 0.457450
vt 0.527505 0.457450
vt 0.527505 0.228725
vt 0.729762 0.228725
vt 0.527505 0.000000
vt 0.729762 0.000000
vt 0.732870 0.405152
vt 0.732870 0.202576
vt 0.930375 0.202576
vt 0.930375 0.405152
vt 0.243742 0.250000
vt 0.000000 0.250000
vt 0.023118 0.226288
vt 0.220623 0.226288
vt 0.222999 0.271275
vt 0.020743 0.271275
vt 0.000000 0.000000
vt 0.023118 0.023712
vt 0.243742 0.000000
vt 0.220623 0.023712
vt 0.243742 0.500000
vt 0.222999 0.500000
vt 0.000000 0.500000
vt 0.020743 0.500000
vt 0.243742 0.750000
vt 0.222999 0.728725
vt 0.000000 0.750000
vt 0.020743 0.728725
vt 0.220623 0.773712
vt 0.023118 0.773712
vt 0.243742 1.000000
vt 0.220623 0.976288
vt 0.000000 1.000000
vt 0.023118 0.976288
vn 0.000000 0.000000 1.000000
vn 0.000000 0.000000 1.000000
vn 0.000000 0.000000 1.000000
vn 0.000000 0.000000 1.000000
vn 0.000000 1.000000 0.000000
vn 0.000000 1.000000 0.000000
vn 0.000000 1.000000 0.000000
vn 0.000000 1.000000 0.000000
vn 0.000000 0.000000 -1.000000
vn 0.000000 0.000000 -1.000000
vn 0.000000 0.000000 -1.000000
vn 0.000000 0.000000 -1.000000
vn 0.000000 -1.000000 0.000000
vn 0.000000 -1.000000 0.000000
vn 0.000000 -1.000000 0.000000
vn 0.000000 -1.000000 0.000000
vn 1.000000 0.000000 0.000000
vn 1.000000 0.000000 0.000000
vn 1.000000 0.000000 0.000000
vn 1.000000 0.000000 0.000000
vn -1.000000 0.000000 0.000000
vn -1.000000 0.000000 0.000000
vn -1.000000 0.000000 0.000000
vn -1.000000 0.000000 0.000000
vn 0.000000 0.000000 1.000000
vn 0.000000 0.000000 1.000000
vn 0.000000 0.000000 1.000000
vn 0.000000 0.000000 1.000000
vn 0.000000 1.000000 0.000000
vn 0.000000 1.000000 0.000000
vn 0.000000 1.000000 0.000000
vn 0.000000 1.000000 0.000000
vn 0.000000 0.000000 -1.000000
vn 0.000000 0.000000 -1.000000
vn 0.000000 0.000000 -1.000000
vn 0.000000 0.000000 -1.000000
vn 0.000000 -1.000000 0.000000
vn 0.000000 -1.000000 0.000000
vn 0.000000 -1.000000 0.000000
vn 0.000000 -1.000000 0.000000
vn 1.000000 0.000000 0.000000
vn 1.000000 0.000000 0.000000
vn 1.000000 0.000000 0.000000
vn 1.000000 0.000000 0.000000
vn -1.000000 0.000000 0.000000
vn -1.000000 0.000000 0.000000
vn -1.000000 0.000000 0.000000
vn -1.000000 0.000000 0.000000
vn 0.000000 0.000000 1.000000
vn 0.000000 0.000000 1.000000
vn 0.000000 0.000000 1.000000
vn 0.000000 0.000000 1.000000
vn 0.000000 1.000000 0.000000
vn 0.000000 1.000000 0.000000
vn 0.000000 1.000000 0.000000
vn 0.000000 1.000000 0.000000
vn 0.000000 0.000000 -1.000000
vn 0.000000 0.000000 -1.000000
vn 0.000000 0.000000 -1.000000
vn 0.000000 0.000000 -1.000000
vn 0.000000 -1.000000 0.000000
vn 0.000000 -1.000000 0.000000
vn 0.000000 -1.000000 0.000000
vn 0.000000 -1.000000 0.000000
vn 1.000000 0.000000 0.000000
vn 1.000000 0.000000 0.000000
vn 1.000000 0.000000 0.000000
vn 1.000000 0.000000 0.000000
vn -1.000000 0.000000 0.000000
vn -1.000000 0.000000 0.000000
vn -1.000000 0.000000 0.000000
vn -1.000000 0.000000 0.000000
vn 0.000000 0.000000 1.000000
vn 0.000000 0.000000 1.000000
vn 0.000000 0.000000 1.000000
vn 0.000000 0.000000 1.000000
vn 0.000000 1.000000 0.000000
vn 0.000000 1.000000 0.000000
vn 0.000000 1.000000 0.000000
vn 0.000000 1.000000 0.000000
vn 0.000000 0.000000 -1.000000
vn 0.000000 0.000000 -1.000000
vn 0.000000 0.000000 -1.000000
vn 0.000000 0.000000 -1.000000
vn 0.000000 -1.000000 0.000000
vn 0.000000 -1.000000 0.000000
vn 0.000000 -1.000000 0.000000
vn 0.000000 -1.000000 0.000000
vn 1.000000 0.000000 0.000000
vn 1.000000 0.000000 0.000000
vn 1.000000 0.000000 0.000000
vn 1.000000 0.000000 0.000000
vn -1.000000 0.000000 0.000000
vn -1.000000 0.000000 0.000000
vn -1.000000 0.000000 0.000000
vn -1.000000 0.000000 0.000000
vn 0.000000 0.000000 1.000000
vn 0.000000 0.000000 1.000000
vn 0.000000 0.000000 1.000000
vn 0.000000 0.000000 1.000000
vn 0.000000 1.000000 0.000000
vn 0.000000 1.000000 0.000000
vn 0.000000 1.000000 0.000000
vn 0.000000 1.000000 0.000000
vn 0.000000 -1.000000 0.000000
vn 0.000000 -1.000000 0.000000
vn 0.000000 -1.000000 0.000000
vn 0.000000 -1.000000 0.000000
vn 1.000000 0.000000 0.000000
vn 1.000000 0.000000 0.000000
vn 1.000000 0.000000 0.000000
vn 1.000000 0.000000 0.000000
vn -1.000000 0.000000 0.000000
vn -1.000000 0.000000 0.000000
vn -1.000000 0.000000 0.000000
vn -1.000000 0.000000 0.000000
vn 0.000000 1.000000 0.000000
vn 0.000000 1.000000 0.000000
vn 0.000000 1.000000 0.000000
vn 0.000000 1.000000 0.000000
vn 0.000000 0.000000 1.000000
vn 0.000000 0.000000 1.000000
vn 0.000000 0.000000 1.000000
vn 0.000000 0.000000 1.000000
vn 0.000000 -1.000000 0.000000
vn 0.000000 -1.000000 0.000000
vn 0.000000 -1.000000 0.000000
vn 0.000000 -1.000000 0.000000
vn 0.000000 1.000000 0.000000
vn 0.000000 1.000000 0.000000
vn 0.000000 0.000000 1.000000
vn 0.000000 0.000000 1.000000
vn 0.000000 0.000000 1.000000
vn 0.000000 0.000000 1.000000
vn 0.000000 -1.000000 0.000000
vn 0.000000 -1.000000 0.000000
vn 0.000000 0.000000 1.000000
vn 0.000000 0.000000 1.000000
vn -0.000000 0.000000 1.000000
vn -0.000000 0.000000 1.000000
vn -0.000000 0.000000 1.000000
vn -0.000000 0.000000 1.000000
vn 0.000000 0.000000 1.000000
vn 0.000000 0.000000 1.000000
vn 0.000000 0.000000 1.000000
vn 0.000000 0.000000 1.000000
vn 0.000000 0.000000 1.000000
vn 0.000000 0.000000 1.000000
vn 0.000000 0.000000 1.000000
vn 0.000000 0.000000 1.000000
vn 0.000000 0.000000 1.000000
vn 0.000000 0.000000 1.000000
vn 0.000000 0.000000 1.000000
vn 0.000000 0.000000 1.000000
vn 0.000000 0.000000 1.000000
vn 0.000000 0.000000 1.000000
vn 0.000000 0.000000 1.000000
vn 0.000000 0.000000 1.000000
vn 0.000000 0.000000 1.000000
vn 0.000000 0.000000 1.000000
vn 0.000000 0.000000 1.000000
vn 0.000000 0.000000 1.000000
vn 0.000000 0.000000 1.000000
vn 0.000000 0.000000 1.000000
vn 0.000000 0.000000 1.000000
vn 0.000000 0.000000 1.000000
vn -0.000000 0.000000 1.000000
vn -0.000000 0.000000 1.000000
vn -0.000000 0.000000 1.000000
vn -0.000000 0.000000 1.000000
vn -1.000000 0.000000 0.000000
vn -1.000000 0.000000 0.000000
vn -1.000000 0.000000 0.000000
vn -1.000000 0.000000 0.000000
vn 0.000000 -1.000000 0.000000
vn 0.000000 -1.000000 0.000000
vn 0.000000 -1.000000 0.000000
vn 0.000000 -1.000000 0.000000
vn 1.000000 0.000000 0.000000
vn 1.000000 0.000000 0.000000
vn 1.000000 0.000000 0.000000
vn 1.000000 0.000000 0.000000
vn 0.000000 1.000000 0.000000
vn 0.000000 1.000000 0.000000
vn 0.000000 1.000000 0.000000
vn 0.000000 1.000000 0.000000
vn 0.000000 -1.000000 0.000000
vn 0.000000 -1.000000 0.000000
vn 0.000000 -1.000000 0.000000
vn 0.000000 -1.000000 0.000000
vn 1.000000 0.000000 0.000000
vn 1.000000 0.000000 0.000000
vn 1.000000 0.000000 0.000000
vn 1.000000 0.000000 0.000000
vn 0.000000 1.000000 0.000000
vn 0.000000 1.000000 0.000000
vn 0.000000 1.000000 0.000000
vn 0.000000 1.000000 0.000000
vn -1.000000 0.000000 0.000000
vn -1.000000 0.000000 0.000000
vn -1.000000 0.000000 0.000000
vn -1.000000 0.000000 0.000000
vn -0.000000 0.000000 1.000000
vn -0.000000 0.000000 1.000000
vn -0.000000 0.000000 1.000000
vn -0.000000 0.000000 1.000000
vn 0.000000 0.000000 1.000000
vn 0.000000 0.000000 1.000000
vn 0.000000 0.000000 1.000000
vn 0.000000 0.000000 1.000000
vn 0.000000 0.000000 1.000000
vn 0.000000 0.000000 1.000000
vn 0.000000 0.000000 1.000000
vn 0.000000 0.000000 1.000000
vn 0.000000 0.000000 1.000000
vn 0.000000 0.000000 1.000000
vn 0.000000 0.000000 1.000000
vn 0.000000 0.000000 1.000000
vn 0.000000 0.000000 1.000000
vn 0.000000 0.000000 1.000000
vn 0.000000 0.000000 1.000000
vn 0.000000 0.000000 1.000000
vn 0.000000 0.000000 1.000000
vn 0.000000 0.000000 1.000000
vn 0.000000 0.000000 1.000000
vn 0.000000 0.000000 1.000000
vn -1.000000 0.000000 0.000000
vn -1.000000 0.000000 0.000000
vn -1.000000 0.000000 0.000000
vn -1.000000 0.000000 0.000000
vn 0.000000 -1.000000 0.000000
vn 0.000000 -1.000000 0.000000
vn 0.000000 -1.000000 0.000000
vn 0.000000 -1.000000 0.000000
vn 0.000000 1.000000 0.000000
vn 0.000000 1.000000 0.000000
vn 0.000000 1.000000 0.000000
vn 0.000000 1.000000 0.000000
vn 0.000000 -1.000000 0.000000
vn 0.000000 -1.000000 0.000000
vn 0.000000 -1.000000 0.000000
vn 0.000000 -1.000000 0.000000
vn 1.000000 0.000000 0.000000
vn 1.000000 0.000000 0.000000
vn 1.000000 0.000000 0.000000
vn 1.000000 0.000000 0.000000
vn 0.000000 1.000000 0.000000
vn 0.000000 1.000000 0.000000
vn 0.000000 1.000000 0.000000
vn 0.000000 1.000000 0.000000
s off
g pasted__hoge_kast group
usemtl initialShadingGroup
f 1/145/1 2/146/2 4/147/3 3/148/4
f 3/65/5 4/66/6 6/67/7 5/68/8
f 5/149/9 6/150/10 8/151/11 7/152/12
f 7/69/13 8/70/14 2/71/15 1/72/16
f 2/1/17 8/2/18 6/3/19 4/4/20
f 7/5/21 1/6/22 3/7/23 5/8/24
f 9/153/25 10/154/26 12/155/27 11/156/28
f 11/73/29 12/74/30 14/75/31 13/76/32
f 13/157/33 14/158/34 16/159/35 15/160/36
f 15/77/37 16/78/38 10/79/39 9/80/40
f 10/9/41 16/10/42 14/11/43 12/12/44
f 15/13/45 9/14/46 11/15/47 13/16/48
f 17/161/49 18/162/50 20/163/51 19/164/52
f 19/81/53 20/82/54 22/83/55 21/84/56
f 21/165/57 22/166/58 24/167/59 23/168/60
f 23/85/61 24/86/62 18/87/63 17/88/64
f 18/17/65 24/18/66 22/19/67 20/20/68
f 23/21/69 17/22/70 19/23/71 21/24/72
f 25/169/73 26/170/74 28/171/75 27/172/76
f 27/89/77 28/90/78 30/91/79 29/92/80
f 29/173/81 30/174/82 32/175/83 31/176/84
f 31/93/85 32/94/86 26/95/87 25/96/88
f 26/25/89 32/26/90 30/27/91 28/28/92
f 31/29/93 25/30/94 27/31/95 29/32/96
f 61/177/97 62/178/98 63/179/99 64/180/100
s 1
f 49/97/101 50/98/102 36/99/103 38/100/104
s 2
f 51/107/105 52/108/106 40/109/107 34/110/108
s off
f 34/33/109 40/34/110 38/35/111 36/36/112
f 39/37/113 33/38/114 35/39/115 37/40/116
s 1
f 45/103/117 46/104/118 42/102/119 41/101/120
s 4
f 75/181/121 76/182/122 77/183/123 78/184/124
s 2
f 47/113/125 48/114/126 44/112/127 43/111/128
s 1
f 35/105/129 46/104/118 45/103/117 37/106/130
s off
f 65/187/131 66/188/132 67/189/133 68/190/134
s 2
f 39/115/135 48/114/126 47/113/125 33/116/136
s 1
f 41/101/120 42/102/119 50/98/102 49/97/101
s 4
f 78/184/124 77/183/123 79/185/137 80/186/138
s 2
f 43/111/128 44/112/127 52/108/106 51/107/105
s off
f 50/191/139 51/192/140 54/193/141 53/194/142
f 51/192/143 34/197/144 55/198/145 54/193/146
f 34/197/147 36/199/148 56/200/149 55/198/150
f 36/199/151 50/191/152 53/194/153 56/200/154
f 33/213/155 47/207/156 58/210/157 57/214/158
f 47/207/159 46/205/160 59/209/161 58/210/162
f 46/205/163 35/211/164 60/212/165 59/209/166
f 35/211/167 33/213/168 57/214/169 60/212/170
f 53/41/171 54/42/172 62/43/173 61/44/174
f 54/117/175 55/118/176 63/119/177 62/120/178
f 55/45/179 56/46/180 64/47/181 63/48/182
f 56/121/183 53/122/184 61/123/185 64/124/186
f 57/125/187 58/126/188 66/127/189 65/128/190
f 58/49/191 59/50/192 67/51/193 66/52/194
f 59/129/195 60/130/196 68/131/197 67/132/198
f 60/53/199 57/54/200 65/55/201 68/56/202
f 46/205/203 47/207/204 70/208/205 69/206/206
f 47/207/207 43/203/208 71/204/209 70/208/210
f 42/201/211 46/205/212 69/206/213 72/202/214
f 43/203/215 51/192/216 73/196/217 71/204/218
f 51/192/219 50/191/220 74/195/221 73/196/222
f 50/191/223 42/201/224 72/202/225 74/195/226
f 69/57/227 70/58/228 76/59/229 75/60/230
f 70/133/231 71/134/232 77/135/233 76/136/234
f 72/139/235 69/140/236 75/141/237 78/142/238
f 71/134/239 73/137/240 79/138/241 77/135/242
f 73/61/243 74/62/244 80/63/245 79/64/246
f 74/143/247 72/139/248 78/142/249 80/144/250
