# This file uses meters as units for non-parametric coordinates.

mtllib keukenkastje.mtl
g default
v -113.000198 0.000000 113.110306
v 62.302109 0.000000 113.110306
v -113.000198 193.059494 113.110306
v 62.302109 193.059494 113.110306
v -113.000198 193.059494 13.110310
v 62.302109 193.059494 13.110310
v -113.000198 0.000000 13.110310
v 62.302109 0.000000 13.110310
v -113.000198 168.927063 13.110310
v 62.302109 168.927063 13.110310
v 62.302109 168.927063 113.110306
v -113.000198 168.927063 113.110306
v -113.000198 24.132439 113.110306
v 62.302109 24.132439 113.110306
v 62.302109 24.132439 13.110310
v -113.000198 24.132439 13.110310
v -113.000198 180.993286 13.110310
v 62.302109 180.993286 13.110310
v 62.302109 180.993286 113.110306
v -113.000198 180.993286 113.110306
v -91.087387 0.000000 113.110306
v -91.087387 0.000000 13.110310
v -91.087387 24.132439 13.110310
v -91.087387 168.927063 13.110310
v -91.087387 180.993286 13.110310
v -91.087387 193.059494 13.110310
v -91.087387 193.059494 113.110306
v -91.087387 180.993286 113.110306
v -91.087387 168.927063 113.110306
v -91.087387 24.132439 113.110306
v 40.389313 24.132439 13.110310
v 40.389313 0.000000 13.110310
v 40.389313 0.000000 113.110306
v 40.389313 24.132439 113.110306
v 40.389313 168.927063 113.110306
v 40.389313 180.993286 113.110306
v 40.389313 193.059494 113.110306
v 40.389313 193.059494 13.110310
v 40.389313 180.993286 13.110310
v 40.389313 168.927063 13.110310
v -91.087387 24.132439 127.544861
v -91.087387 0.000000 127.544861
v 40.389313 0.000000 127.544861
v 40.389313 24.132439 127.544861
v -113.000198 0.000000 127.544861
v -113.000198 24.132439 127.544861
v 62.302109 24.132439 127.544861
v 62.302109 0.000000 127.544861
v -91.087387 193.059494 127.544861
v -91.087387 180.993286 127.544861
v 40.389313 180.993286 127.544861
v 40.389313 193.059494 127.544861
v -113.000198 180.993286 127.544861
v -113.000198 193.059494 127.544861
v 62.302109 180.993286 127.544861
v 62.302109 193.059494 127.544861
v -91.087387 36.198654 113.110306
v -113.000198 36.198654 113.110306
v -113.000198 36.198654 13.110310
v -91.087387 36.198654 13.110310
v 40.389313 36.198654 13.110310
v 62.302109 36.198654 13.110310
v 62.302109 36.198654 113.110306
v 40.389313 36.198654 113.110306
v -36.305435 36.198654 13.110310
v -36.305435 24.132439 13.110310
v -36.305435 0.000000 13.110310
v -36.305435 0.000000 113.110306
v -36.305435 0.000000 127.544861
v -36.305435 24.132439 127.544861
v -36.305435 24.132439 113.110306
v -36.305435 36.198654 113.110306
v -36.305435 168.927063 113.110306
v -36.305435 180.993286 113.110306
v -36.305435 180.993286 127.544861
v -36.305435 193.059494 127.544861
v -36.305435 193.059494 113.110306
v -36.305435 193.059494 13.110310
v -36.305435 180.993286 13.110310
v -36.305435 168.927063 13.110310
v -14.392654 0.000000 113.110306
v -14.392654 0.000000 13.110310
v -14.392654 24.132439 13.110310
v -14.392654 36.198654 13.110310
v -14.392654 168.927063 13.110310
v -14.392654 180.993286 13.110310
v -14.392654 193.059494 13.110310
v -14.392654 193.059494 113.110306
v -14.392654 193.059494 127.544861
v -14.392654 180.993286 127.544861
v -14.392654 180.993286 113.110306
v -14.392654 168.927063 113.110306
v -14.392654 36.198654 113.110306
v -14.392654 24.132439 113.110306
v -14.392654 24.132439 127.544861
v -14.392654 0.000000 127.544861
v 40.389313 168.927063 117.973846
v -14.392654 168.927063 117.973846
v 40.389313 36.198654 117.973846
v -14.392654 36.198654 117.973846
v -91.087387 168.927063 117.973846
v -36.305435 168.927063 117.973846
v -36.305435 36.198654 117.973846
v -91.087387 36.198654 117.973846
v -49.363754 92.020218 125.070473
v -40.813156 92.020218 125.070473
v -49.363754 112.618561 125.070473
v -40.813156 112.618561 125.070473
v -49.363754 112.618561 108.192711
v -40.813156 112.618561 108.192711
v -49.363754 92.020218 108.192711
v -40.813156 92.020218 108.192711
v -9.543411 92.020218 125.070473
v -0.992813 92.020218 125.070473
v -9.543411 112.618561 125.070473
v -0.992813 112.618561 125.070473
v -9.543411 112.618561 108.192711
v -0.992813 112.618561 108.192711
v -9.543411 92.020218 108.192711
v -0.992813 92.020218 108.192711
vt 0.245406 0.776285
vt 0.030955 0.776285
vt 0.030955 0.491647
vt 0.245406 0.491647
vt 0.245406 0.802161
vt 0.030955 0.802161
vt 0.030955 0.465771
vt 0.245406 0.465771
vt 0.245406 0.828037
vt 0.030955 0.828037
vt 0.030955 0.414018
vt 0.245406 0.414018
vt 0.000000 0.828037
vt 0.000000 0.802161
vt 0.000000 0.465771
vt 0.000000 0.414018
vt 0.592358 0.738204
vt 0.377907 0.738204
vt 0.377907 0.453566
vt 0.592358 0.453566
vt 0.592358 0.764080
vt 0.377907 0.764080
vt 0.377907 0.427690
vt 0.592358 0.427690
vt 0.592358 0.789956
vt 0.377907 0.789956
vt 0.377907 0.375938
vt 0.592358 0.375938
vt 0.623313 0.764080
vt 0.623313 0.789956
vt 0.623313 0.375938
vt 0.623313 0.427690
vt 0.996104 0.945214
vt 0.985674 0.945214
vt 0.985674 0.660576
vt 0.996104 0.660576
vt 0.989570 0.284638
vt 0.989570 0.000000
vt 1.000000 0.000000
vt 1.000000 0.284638
vt 0.010430 0.750409
vt 0.000000 0.750409
vt 0.000000 0.465771
vt 0.010430 0.465771
vt 0.985674 0.660576
vt 0.985674 0.375938
vt 0.996104 0.375938
vt 0.996104 0.660576
vt 0.405178 0.046992
vt 0.441373 0.046992
vt 0.441373 0.091166
vt 0.405178 0.091166
vt 0.483097 0.046992
vt 0.519292 0.046992
vt 0.519292 0.091166
vt 0.483097 0.091166
vt 0.522057 0.046992
vt 0.558251 0.046992
vt 0.558251 0.091166
vt 0.522057 0.091166
vt 0.444138 0.046992
vt 0.480332 0.046992
vt 0.480332 0.091166
vt 0.444138 0.091166
vt 0.654306 0.422930
vt 0.868758 0.422930
vt 0.868758 0.540411
vt 0.654306 0.540411
vt 0.654306 0.375938
vt 0.868758 0.375938
vt 0.868758 0.587403
vt 0.654306 0.587403
vt 0.623351 0.422930
vt 0.623351 0.540411
vt 0.623351 0.375938
vt 0.868758 0.704884
vt 0.654306 0.704884
vt 0.623351 0.587403
vt 0.654306 0.751876
vt 0.868758 0.751876
vt 0.623351 0.704884
vt 0.623351 0.751876
vt 0.716854 0.046992
vt 0.931305 0.046992
vt 0.931305 0.164473
vt 0.716854 0.164473
vt 0.716854 0.000000
vt 0.931305 0.000000
vt 0.962260 0.046992
vt 0.962260 0.164473
vt 0.931305 0.211465
vt 0.716854 0.211465
vt 0.962260 0.000000
vt 0.962260 0.211465
vt 0.931305 0.328946
vt 0.716854 0.328946
vt 0.962260 0.328946
vt 0.716854 0.375938
vt 0.931305 0.375938
vt 0.962260 0.375938
vt 0.923339 0.422930
vt 0.954294 0.422930
vt 0.954294 0.540411
vt 0.923339 0.540411
vt 0.954294 0.375938
vt 0.923339 0.375938
vt 0.954294 0.587403
vt 0.923339 0.587403
vt 0.923339 0.704884
vt 0.954294 0.704884
vt 0.954294 0.751876
vt 0.923339 0.751876
vt 0.985462 0.704884
vt 0.954507 0.704884
vt 0.954507 0.587403
vt 0.985462 0.587403
vt 0.954507 0.751876
vt 0.985462 0.751876
vt 0.954507 0.540411
vt 0.985462 0.540411
vt 0.985462 0.422930
vt 0.954507 0.422930
vt 0.954507 0.375938
vt 0.985462 0.375938
vt 0.561016 0.046992
vt 0.571446 0.046992
vt 0.571446 0.164473
vt 0.561016 0.164473
vt 0.583134 0.046992
vt 0.583134 0.164473
vt 0.572704 0.164473
vt 0.572704 0.046992
vt 0.596080 0.046992
vt 0.606510 0.046992
vt 0.606510 0.164473
vt 0.596080 0.164473
vt 0.594822 0.164473
vt 0.584392 0.164473
vt 0.584392 0.046992
vt 0.594822 0.046992
vt 0.405178 0.091166
vt 0.423515 0.091166
vt 0.423515 0.127360
vt 0.405178 0.127360
vt 0.646727 0.046992
vt 0.665064 0.046992
vt 0.665064 0.083187
vt 0.646727 0.083187
vt 0.646727 0.083187
vt 0.665064 0.083187
vt 0.665064 0.119382
vt 0.646727 0.119382
vt 0.666207 0.046992
vt 0.684543 0.046992
vt 0.684543 0.083187
vt 0.666207 0.083187
vt 0.362925 0.414018
vt 0.362925 0.698656
vt 0.245445 0.698656
vt 0.245445 0.414018
vt 0.362925 0.983294
vt 0.245445 0.983294
vt 0.245445 0.698656
vt 0.362925 0.698656
vt 0.046992 0.336390
vt 0.046992 0.051752
vt 0.164473 0.051752
vt 0.164473 0.336390
vt 0.000000 0.051752
vt 0.000000 0.336390
vt 0.046992 0.025876
vt 0.164473 0.025876
vt 0.211465 0.051752
vt 0.211465 0.336390
vt 0.046992 0.362266
vt 0.164473 0.362266
vt 0.000000 0.025876
vt 0.000000 0.362266
vt 0.046992 0.000000
vt 0.164473 0.000000
vt 0.211465 0.025876
vt 0.328946 0.051752
vt 0.328946 0.336390
vt 0.211465 0.362266
vt 0.046992 0.414018
vt 0.164473 0.414018
vt 0.000000 0.000000
vt 0.000000 0.414018
vt 0.211465 0.000000
vt 0.328946 0.025876
vt 0.375938 0.051752
vt 0.375938 0.336390
vt 0.328946 0.362266
vt 0.211465 0.414018
vt 0.328946 0.000000
vt 0.375938 0.025876
vt 0.375938 0.362266
vt 0.328946 0.414018
vt 0.375938 0.000000
vt 0.375938 0.414018
vt 0.403783 0.328946
vt 0.377907 0.328946
vt 0.377907 0.211465
vt 0.403783 0.211465
vt 0.377907 0.375938
vt 0.403783 0.375938
vt 0.377907 0.164473
vt 0.403783 0.164473
vt 0.688421 0.328946
vt 0.688421 0.375938
vt 0.377907 0.046992
vt 0.403783 0.046992
vt 0.688421 0.164473
vt 0.688421 0.211465
vt 0.714297 0.328946
vt 0.714297 0.375938
vt 0.403783 0.000000
vt 0.377907 0.000000
vt 0.714297 0.164473
vt 0.714297 0.211465
vt 0.688421 0.000000
vt 0.688421 0.046992
vt 0.714297 0.046992
vt 0.714297 0.000000
vt 0.920548 0.704884
vt 0.868796 0.704884
vt 0.868796 0.587403
vt 0.920548 0.587403
vt 0.868796 0.751876
vt 0.920548 0.751876
vt 0.868796 0.540411
vt 0.920548 0.540411
vt 0.868796 0.422930
vt 0.920548 0.422930
vt 0.920548 0.375938
vt 0.868796 0.375938
vt 0.962298 0.046992
vt 0.988175 0.046992
vt 0.988175 0.164473
vt 0.962298 0.164473
vt 0.962298 0.000000
vt 0.988175 0.000000
vt 0.962298 0.211465
vt 0.988175 0.211465
vt 0.988175 0.328946
vt 0.962298 0.328946
vt 0.962298 0.375938
vt 0.988175 0.375938
vt 0.607767 0.046992
vt 0.626104 0.046992
vt 0.626104 0.091166
vt 0.607767 0.091166
vt 0.627247 0.046992
vt 0.645584 0.046992
vt 0.645584 0.091166
vt 0.627247 0.091166
vn 0.000000 0.000000 1.000000
vn 0.000000 0.000000 1.000000
vn 0.000000 0.000000 1.000000
vn 0.000000 0.000000 1.000000
vn 0.000000 1.000000 0.000000
vn 0.000000 1.000000 0.000000
vn 0.000000 1.000000 0.000000
vn 0.000000 1.000000 0.000000
vn 0.000000 -1.000000 0.000000
vn 0.000000 -1.000000 0.000000
vn 0.000000 -1.000000 0.000000
vn 0.000000 -1.000000 0.000000
vn 0.000000 -1.000000 0.000000
vn 0.000000 -1.000000 0.000000
vn 0.000000 -1.000000 0.000000
vn 0.000000 -1.000000 0.000000
vn 0.000000 1.000000 0.000000
vn 0.000000 1.000000 0.000000
vn 0.000000 1.000000 0.000000
vn 0.000000 1.000000 0.000000
vn 0.000000 0.000000 1.000000
vn 0.000000 0.000000 1.000000
vn 0.000000 0.000000 1.000000
vn 0.000000 0.000000 1.000000
vn 0.000000 0.000000 -1.000000
vn 0.000000 0.000000 -1.000000
vn 0.000000 0.000000 -1.000000
vn 0.000000 0.000000 -1.000000
vn 0.000000 0.000000 -1.000000
vn 0.000000 0.000000 -1.000000
vn 0.000000 0.000000 -1.000000
vn 0.000000 0.000000 -1.000000
vn 1.000000 0.000000 0.000000
vn 1.000000 0.000000 0.000000
vn 1.000000 0.000000 0.000000
vn 1.000000 0.000000 0.000000
vn -1.000000 0.000000 0.000000
vn -1.000000 0.000000 0.000000
vn -1.000000 0.000000 0.000000
vn -1.000000 0.000000 0.000000
vn 0.000000 0.000000 1.000000
vn 0.000000 0.000000 1.000000
vn 0.000000 0.000000 1.000000
vn 0.000000 0.000000 1.000000
vn 0.000000 0.000000 1.000000
vn 0.000000 0.000000 1.000000
vn 0.000000 0.000000 1.000000
vn 0.000000 0.000000 1.000000
vn 1.000000 0.000000 0.000000
vn 1.000000 0.000000 0.000000
vn 0.000000 0.000000 -1.000000
vn 0.000000 0.000000 -1.000000
vn 0.000000 0.000000 -1.000000
vn 0.000000 0.000000 -1.000000
vn -1.000000 0.000000 0.000000
vn -1.000000 0.000000 0.000000
vn 0.000000 0.000000 -1.000000
vn 0.000000 0.000000 -1.000000
vn 0.000000 0.000000 -1.000000
vn 0.000000 0.000000 -1.000000
vn 1.000000 0.000000 0.000000
vn 1.000000 0.000000 0.000000
vn 0.000000 0.000000 1.000000
vn 0.000000 0.000000 1.000000
vn 0.000000 0.000000 1.000000
vn 0.000000 0.000000 1.000000
vn 0.000000 0.000000 1.000000
vn 0.000000 0.000000 1.000000
vn 0.000000 0.000000 1.000000
vn 0.000000 0.000000 1.000000
vn -1.000000 0.000000 0.000000
vn -1.000000 0.000000 0.000000
vn 0.000000 0.000000 1.000000
vn 0.000000 0.000000 1.000000
vn 0.000000 0.000000 1.000000
vn 0.000000 0.000000 1.000000
vn 0.000000 0.000000 1.000000
vn 0.000000 0.000000 1.000000
vn 0.000000 0.000000 1.000000
vn 0.000000 0.000000 1.000000
vn 1.000000 0.000000 0.000000
vn 1.000000 0.000000 0.000000
vn 0.000000 0.000000 -1.000000
vn 0.000000 0.000000 -1.000000
vn 0.000000 0.000000 -1.000000
vn 0.000000 0.000000 -1.000000
vn -1.000000 0.000000 0.000000
vn -1.000000 0.000000 0.000000
vn 0.000000 0.000000 -1.000000
vn 0.000000 0.000000 -1.000000
vn 0.000000 0.000000 -1.000000
vn 0.000000 0.000000 -1.000000
vn 1.000000 0.000000 0.000000
vn 1.000000 0.000000 0.000000
vn 0.000000 0.000000 1.000000
vn 0.000000 0.000000 1.000000
vn 0.000000 0.000000 1.000000
vn 0.000000 0.000000 1.000000
vn 0.000000 0.000000 1.000000
vn 0.000000 0.000000 1.000000
vn 0.000000 0.000000 1.000000
vn 0.000000 0.000000 1.000000
vn -1.000000 0.000000 0.000000
vn -1.000000 0.000000 0.000000
vn 0.000000 -1.000000 0.000000
vn 0.000000 -1.000000 0.000000
vn 0.000000 0.000000 -1.000000
vn 0.000000 0.000000 -1.000000
vn 0.000000 0.000000 -1.000000
vn 0.000000 0.000000 -1.000000
vn 0.000000 0.000000 -1.000000
vn 0.000000 0.000000 -1.000000
vn 0.000000 1.000000 0.000000
vn 0.000000 1.000000 0.000000
vn 0.000000 0.000000 1.000000
vn 0.000000 0.000000 1.000000
vn 0.000000 0.000000 1.000000
vn 0.000000 0.000000 1.000000
vn 0.000000 0.000000 1.000000
vn 0.000000 0.000000 1.000000
vn 0.000000 0.000000 1.000000
vn 0.000000 0.000000 1.000000
vn 0.000000 0.000000 -1.000000
vn 0.000000 0.000000 -1.000000
vn 0.000000 0.000000 -1.000000
vn 0.000000 -1.000000 0.000000
vn 0.000000 -1.000000 0.000000
vn 0.000000 0.000000 1.000000
vn 0.000000 0.000000 1.000000
vn 0.000000 0.000000 1.000000
vn 0.000000 0.000000 1.000000
vn 0.000000 0.000000 1.000000
vn 0.000000 0.000000 1.000000
vn 0.000000 0.000000 1.000000
vn 0.000000 0.000000 1.000000
vn 0.000000 1.000000 0.000000
vn 0.000000 1.000000 0.000000
vn 0.000000 0.000000 -1.000000
vn 0.000000 0.000000 -1.000000
vn 0.000000 0.000000 -1.000000
vn 0.000000 -1.000000 0.000000
vn 0.000000 -1.000000 0.000000
vn 0.000000 -1.000000 0.000000
vn 0.000000 -1.000000 0.000000
vn 0.000000 1.000000 0.000000
vn 0.000000 1.000000 0.000000
vn 0.000000 1.000000 0.000000
vn 0.000000 1.000000 0.000000
vn 0.000000 -1.000000 0.000000
vn 0.000000 -1.000000 0.000000
vn 0.000000 -1.000000 0.000000
vn 0.000000 -1.000000 0.000000
vn 0.000000 1.000000 0.000000
vn 0.000000 1.000000 0.000000
vn 0.000000 1.000000 0.000000
vn 0.000000 1.000000 0.000000
vn -1.000000 0.000000 0.000000
vn -1.000000 0.000000 0.000000
vn -1.000000 0.000000 0.000000
vn -1.000000 0.000000 0.000000
vn 0.000000 1.000000 0.000000
vn 0.000000 1.000000 0.000000
vn 0.000000 1.000000 0.000000
vn 0.000000 1.000000 0.000000
vn 0.000000 -1.000000 0.000000
vn 0.000000 -1.000000 0.000000
vn 0.000000 -1.000000 0.000000
vn 0.000000 -1.000000 0.000000
vn 1.000000 0.000000 0.000000
vn 1.000000 0.000000 0.000000
vn 1.000000 0.000000 0.000000
vn 1.000000 0.000000 0.000000
vn 0.000000 1.000000 0.000000
vn 0.000000 1.000000 0.000000
vn 0.000000 1.000000 0.000000
vn 0.000000 1.000000 0.000000
vn 0.000000 -1.000000 0.000000
vn 0.000000 -1.000000 0.000000
vn 0.000000 -1.000000 0.000000
vn 0.000000 -1.000000 0.000000
vn 0.000000 -1.000000 0.000000
vn 0.000000 -1.000000 0.000000
vn 0.000000 -1.000000 0.000000
vn 0.000000 -1.000000 0.000000
vn 0.000000 1.000000 0.000000
vn 0.000000 1.000000 0.000000
vn 0.000000 1.000000 0.000000
vn 0.000000 1.000000 0.000000
vn 0.000000 -1.000000 0.000000
vn 0.000000 -1.000000 0.000000
vn 0.000000 -1.000000 0.000000
vn 0.000000 -1.000000 0.000000
vn 0.000000 1.000000 0.000000
vn 0.000000 1.000000 0.000000
vn 0.000000 1.000000 0.000000
vn 0.000000 1.000000 0.000000
vn -1.000000 0.000000 0.000000
vn -1.000000 0.000000 0.000000
vn -1.000000 0.000000 0.000000
vn -1.000000 0.000000 0.000000
vn 0.000000 -1.000000 0.000000
vn 0.000000 -1.000000 0.000000
vn 0.000000 -1.000000 0.000000
vn 0.000000 -1.000000 0.000000
vn 1.000000 0.000000 0.000000
vn 1.000000 0.000000 0.000000
vn 1.000000 0.000000 0.000000
vn 1.000000 0.000000 0.000000
vn 0.000000 1.000000 0.000000
vn 0.000000 1.000000 0.000000
vn 0.000000 1.000000 0.000000
vn 0.000000 1.000000 0.000000
vn 0.000000 1.000000 0.000000
vn 0.000000 1.000000 0.000000
vn 0.000000 1.000000 0.000000
vn 0.000000 1.000000 0.000000
vn 0.000000 -1.000000 0.000000
vn 0.000000 -1.000000 0.000000
vn 0.000000 -1.000000 0.000000
vn 0.000000 -1.000000 0.000000
vn 0.000000 1.000000 0.000000
vn 0.000000 1.000000 0.000000
vn 0.000000 1.000000 0.000000
vn 0.000000 1.000000 0.000000
vn -1.000000 0.000000 0.000000
vn -1.000000 0.000000 0.000000
vn -1.000000 0.000000 0.000000
vn -1.000000 0.000000 0.000000
vn 1.000000 0.000000 0.000000
vn 1.000000 0.000000 0.000000
vn 1.000000 0.000000 0.000000
vn 1.000000 0.000000 0.000000
vn 0.000000 -1.000000 0.000000
vn 0.000000 -1.000000 0.000000
vn 0.000000 -1.000000 0.000000
vn 0.000000 -1.000000 0.000000
vn -1.000000 0.000000 0.000000
vn -1.000000 0.000000 0.000000
vn -1.000000 0.000000 0.000000
vn -1.000000 0.000000 0.000000
vn 0.000000 1.000000 0.000000
vn 0.000000 1.000000 0.000000
vn 0.000000 1.000000 0.000000
vn 0.000000 1.000000 0.000000
vn 1.000000 0.000000 0.000000
vn 1.000000 0.000000 0.000000
vn 1.000000 0.000000 0.000000
vn 1.000000 0.000000 0.000000
vn 0.000000 -1.000000 0.000000
vn 0.000000 -1.000000 0.000000
vn 0.000000 -1.000000 0.000000
vn 0.000000 -1.000000 0.000000
vn 0.000000 0.000000 1.000000
vn 0.000000 0.000000 1.000000
vn 0.000000 0.000000 1.000000
vn 0.000000 0.000000 1.000000
vn 0.000000 1.000000 0.000000
vn 0.000000 1.000000 0.000000
vn 0.000000 1.000000 0.000000
vn 0.000000 1.000000 0.000000
vn 0.000000 -1.000000 0.000000
vn 0.000000 -1.000000 0.000000
vn 0.000000 -1.000000 0.000000
vn 0.000000 -1.000000 0.000000
vn 1.000000 0.000000 0.000000
vn 1.000000 0.000000 0.000000
vn 1.000000 0.000000 0.000000
vn 1.000000 0.000000 0.000000
vn -1.000000 0.000000 0.000000
vn -1.000000 0.000000 0.000000
vn -1.000000 0.000000 0.000000
vn -1.000000 0.000000 0.000000
vn 0.000000 0.000000 1.000000
vn 0.000000 0.000000 1.000000
vn 0.000000 0.000000 1.000000
vn 0.000000 0.000000 1.000000
vn 0.000000 1.000000 0.000000
vn 0.000000 1.000000 0.000000
vn 0.000000 1.000000 0.000000
vn 0.000000 1.000000 0.000000
vn 0.000000 -1.000000 0.000000
vn 0.000000 -1.000000 0.000000
vn 0.000000 -1.000000 0.000000
vn 0.000000 -1.000000 0.000000
vn 1.000000 0.000000 0.000000
vn 1.000000 0.000000 0.000000
vn 1.000000 0.000000 0.000000
vn 1.000000 0.000000 0.000000
vn -1.000000 0.000000 0.000000
vn -1.000000 0.000000 0.000000
vn -1.000000 0.000000 0.000000
vn -1.000000 0.000000 0.000000
s off
g pasted__keuken_kast group
usemtl initialShadingGroup
f 99/157/1 97/158/2 98/159/3 100/160/4
s 1
f 37/65/5 38/66/6 87/67/7 88/68/8
s 2
f 32/83/9 33/84/10 81/85/11 82/86/12
f 21/95/13 22/96/14 67/92/15 68/91/16
s 1
f 26/76/17 27/77/18 77/72/19 78/71/20
s off
f 102/161/21 101/162/22 104/163/23 103/164/24
s 5
f 60/165/25 24/166/26 80/167/27 65/168/28
f 40/182/29 61/183/30 84/174/31 85/173/32
s 7
f 10/1/33 11/2/34 63/3/35 62/4/36
s 8
f 12/17/37 9/18/38 59/19/39 58/20/40
s 9
f 57/201/41 30/202/42 71/203/43 72/204/44
f 34/211/45 64/212/46 93/208/47 94/207/48
s 7
f 14/7/49 15/8/50 62/4/36 63/3/35
s 5
f 61/183/30 31/193/51 83/184/52 84/174/31
f 23/175/53 60/165/25 65/168/28 66/176/54
s 8
f 16/23/55 13/24/56 58/20/40 59/19/39
s 5
f 24/166/26 25/171/57 79/172/58 80/167/27
f 39/190/59 40/182/29 85/173/32 86/181/60
s 7
f 11/2/34 10/1/33 18/5/61 19/6/62
s 9
f 35/222/63 36/223/64 91/219/65 92/213/66
f 28/215/67 29/209/68 73/214/69 74/220/70
s 8
f 9/18/38 12/17/37 20/21/71 17/22/72
s 13
f 41/225/73 42/226/74 69/227/75 70/228/76
f 43/233/77 44/234/78 95/232/79 96/231/80
s 7
f 2/11/81 8/12/82 15/8/50 14/7/49
s 5
f 31/193/51 32/198/83 82/194/84 83/184/52
f 22/185/85 23/175/53 66/176/54 67/186/86
s 8
f 7/27/87 1/28/88 13/24/56 16/23/55
s 5
f 25/171/57 26/179/89 78/180/90 79/172/58
f 38/195/91 39/190/59 86/181/60 87/189/92
s 7
f 19/6/62 18/5/61 6/9/93 4/10/94
s 15
f 51/237/95 52/238/96 89/239/97 90/240/98
f 49/245/99 50/246/100 75/243/101 76/244/102
s 8
f 17/22/72 20/21/71 3/25/103 5/26/104
s 2
f 7/98/105 22/96/14 21/95/13 1/99/106
s 5
f 16/178/107 23/175/53 22/185/85 7/188/108
f 59/170/109 60/165/25 23/175/53 16/178/107
f 9/169/110 24/166/26 60/165/25 59/170/109
f 17/177/111 25/171/57 24/166/26 9/169/110
f 5/187/112 26/179/89 25/171/57 17/177/111
s 1
f 3/79/113 27/77/18 26/76/17 5/80/114
s 15
f 53/247/115 50/246/100 49/245/99 54/248/116
s 9
f 12/210/117 29/209/68 28/215/67 20/216/118
f 29/209/68 12/210/117 58/206/119 57/201/41
f 13/205/120 30/202/42 57/201/41 58/206/119
s 13
f 45/229/121 42/226/74 41/225/73 46/230/122
s 5
f 15/197/123 31/193/51 61/183/30 62/192/124
f 32/198/83 31/193/51 15/197/123 8/200/125
s 2
f 33/84/10 32/83/9 8/87/126 2/88/127
s 13
f 47/235/128 44/234/78 43/233/77 48/236/129
s 9
f 63/217/130 64/212/46 34/211/45 14/218/131
f 11/221/132 35/222/63 64/212/46 63/217/130
f 19/224/133 36/223/64 35/222/63 11/221/132
s 15
f 52/238/96 51/237/95 55/241/134 56/242/135
s 1
f 38/66/6 37/65/5 4/69/136 6/70/137
s 5
f 18/196/138 39/190/59 38/195/91 6/199/139
f 10/191/140 40/182/29 39/190/59 18/196/138
f 40/182/29 10/191/140 62/192/124 61/183/30
s 17
f 42/97/141 21/95/142 68/91/143 69/94/144
s 18
f 44/101/145 34/102/146 94/103/147 95/104/148
s off
f 1/99/149 21/95/150 42/97/151 45/100/152
f 30/110/153 13/111/154 46/112/155 41/109/156
f 13/24/157 1/28/158 45/31/159 46/32/160
f 14/105/161 34/102/162 44/101/163 47/106/164
f 33/84/165 2/88/166 48/93/167 43/89/168
f 2/11/169 14/7/170 47/15/171 48/16/172
s 18
f 41/109/173 70/108/174 71/107/175 30/110/176
s 17
f 43/89/177 96/90/178 81/85/179 33/84/180
s 19
f 50/113/181 28/114/182 74/115/183 75/116/184
s 20
f 52/73/185 37/65/186 88/68/187 89/74/188
s off
f 20/117/189 28/114/190 50/113/191 53/118/192
f 27/77/193 3/79/194 54/82/195 49/81/196
f 3/25/197 20/21/198 53/29/199 54/30/200
f 36/122/201 19/123/202 55/124/203 51/121/204
f 19/6/205 4/10/206 56/13/207 55/14/208
f 4/69/209 37/65/210 52/73/211 56/75/212
s 20
f 49/81/213 76/78/214 77/72/215 27/77/216
s 19
f 51/121/217 90/120/218 91/119/219 36/122/220
s 17
f 96/90/178 69/94/144 68/91/143 81/85/179
s 19
f 75/116/184 74/115/183 91/119/219 90/120/218
s 2
f 82/86/12 81/85/11 68/91/16 67/92/15
s 5
f 66/176/54 83/184/52 82/194/84 67/186/86
f 84/174/31 83/184/52 66/176/54 65/168/28
f 65/168/28 80/167/27 85/173/32 84/174/31
f 86/181/60 85/173/32 80/167/27 79/172/58
f 87/189/92 86/181/60 79/172/58 78/180/90
s 1
f 88/68/8 87/67/7 78/71/20 77/72/19
s 20
f 89/74/188 88/68/187 77/72/215 76/78/214
s 15
f 75/243/101 90/240/98 89/239/97 76/244/102
s 9
f 73/214/69 92/213/66 91/219/65 74/220/70
f 72/204/44 93/208/47 92/213/66 73/214/69
f 94/207/48 93/208/47 72/204/44 71/203/43
s 18
f 95/104/148 94/103/147 71/107/175 70/108/174
s 13
f 96/231/80 95/232/79 70/228/76 69/227/75
s off
f 97/125/221 35/126/222 92/127/223 98/128/224
f 98/33/225 92/34/226 93/35/227 100/36/228
f 97/37/229 99/38/230 64/39/231 35/40/232
f 99/129/233 100/130/234 93/131/235 64/132/236
f 101/41/237 29/42/238 57/43/239 104/44/240
f 102/133/241 73/134/242 29/135/243 101/136/244
f 102/45/245 103/46/246 72/47/247 73/48/248
f 104/137/249 57/138/250 72/139/251 103/140/252
f 105/249/253 106/250/254 108/251/255 107/252/256
f 107/141/257 108/142/258 110/143/259 109/144/260
f 111/145/261 112/146/262 106/147/263 105/148/264
f 106/49/265 112/50/266 110/51/267 108/52/268
f 111/53/269 105/54/270 107/55/271 109/56/272
f 113/253/273 114/254/274 116/255/275 115/256/276
f 115/149/277 116/150/278 118/151/279 117/152/280
f 119/153/281 120/154/282 114/155/283 113/156/284
f 114/57/285 120/58/286 118/59/287 116/60/288
f 119/61/289 113/62/290 115/63/291 117/64/292
