# This file uses meters as units for non-parametric coordinates.

mtllib raam.mtl
g default
v -25.464102 199.035095 26.472971
v 152.102631 199.035095 26.472971
v -25.464102 376.601837 26.472971
v 152.102631 376.601837 26.472971
v -25.464102 376.601837 13.523373
v 152.102631 376.601837 13.523373
v -25.464102 199.035095 13.523373
v 152.102631 199.035095 13.523373
v 135.960205 199.035095 13.523373
v 135.960205 199.035095 26.472971
v 135.960205 376.601837 26.472971
v 135.960205 376.601837 13.523373
v 71.390480 199.035095 13.523373
v 71.390480 199.035095 26.472971
v 71.390480 376.601837 26.472971
v 71.390480 376.601837 13.523373
v 55.248047 199.035095 13.523373
v 55.248047 199.035095 26.472971
v 55.248047 376.601837 26.472971
v 55.248047 376.601837 13.523373
v -9.321680 199.035095 13.523373
v -9.321680 199.035095 26.472971
v -9.321680 376.601837 26.472971
v -9.321680 376.601837 13.523373
v 152.102631 360.459381 13.523373
v 152.102631 360.459381 26.472971
v 135.960205 360.459381 26.472971
v 71.390480 360.459381 26.472971
v 55.248047 360.459381 26.472971
v -9.321680 360.459381 26.472971
v -25.464102 360.459381 26.472971
v -25.464102 360.459381 13.523373
v 152.102631 295.889648 13.523373
v 152.102631 295.889648 26.472971
v 135.960205 295.889648 26.472971
v 71.390480 295.889648 26.472971
v 55.248047 295.889648 26.472971
v -9.321680 295.889648 26.472971
v -25.464102 295.889648 26.472971
v -25.464102 295.889648 13.523373
v 152.102631 279.747253 13.523373
v 152.102631 279.747253 26.472971
v 135.960205 279.747253 26.472971
v 71.390480 279.747253 26.472971
v 55.248047 279.747253 26.472971
v -9.321680 279.747253 26.472971
v -25.464102 279.747253 26.472971
v -25.464102 279.747253 13.523373
v 152.102631 215.177521 13.523373
v 152.102631 215.177521 26.472971
v 135.960205 215.177521 26.472971
v 71.390480 215.177521 26.472971
v 55.248047 215.177521 26.472971
v -9.321686 215.177521 26.472971
v -25.464102 215.177521 26.472971
v -25.464102 215.177521 13.523373
v 135.960205 360.459381 21.744167
v 71.390480 360.459381 21.744167
v 135.960205 295.889648 21.744167
v 71.390480 295.889648 21.744167
v 55.248047 360.459381 21.744167
v -9.321680 360.459381 21.744167
v 55.248047 295.889648 21.744167
v -9.321680 295.889648 21.744167
v 135.960205 279.747253 21.744167
v 71.390480 279.747253 21.744167
v 135.960205 215.177521 21.744167
v 71.390480 215.177521 21.744167
v 55.248047 279.747253 21.744167
v -9.321680 279.747253 21.744167
v 55.248047 215.177521 21.744167
v -9.321686 215.177521 21.744167
vt 0.825866 0.254967
vt 0.825866 0.318709
vt 0.774732 0.318709
vt 0.774732 0.254967
vt 0.774732 0.573675
vt 0.825866 0.573675
vt 0.825866 0.637417
vt 0.774732 0.637417
vt 0.774732 0.892384
vt 0.825866 0.892384
vt 0.825866 0.956125
vt 0.774732 0.956125
vt 0.877515 0.318709
vt 0.826381 0.318709
vt 0.826381 0.254967
vt 0.877515 0.254967
vt 0.826381 0.573675
vt 0.877515 0.573675
vt 0.877515 0.637417
vt 0.826381 0.637417
vt 0.826381 0.892384
vt 0.877515 0.892384
vt 0.877515 0.956125
vt 0.826381 0.956125
vt 0.126274 0.318708
vt 0.107602 0.318708
vt 0.107602 0.063742
vt 0.126274 0.063742
vt 0.064561 0.318708
vt 0.064561 0.063742
vt 0.083234 0.063742
vt 0.083234 0.318708
vt 0.212356 0.318708
vt 0.193683 0.318708
vt 0.193683 0.063742
vt 0.212356 0.063742
vt 0.129122 0.318708
vt 0.129122 0.063742
vt 0.147795 0.063742
vt 0.147795 0.318708
vt 0.104754 0.318709
vt 0.086081 0.318709
vt 0.086081 0.063742
vt 0.104754 0.063742
vt 0.172163 0.318708
vt 0.172163 0.063742
vt 0.190835 0.063742
vt 0.190835 0.318708
vt 0.720236 0.509934
vt 0.701563 0.509934
vt 0.701563 0.254967
vt 0.720236 0.254967
vt 0.215203 0.318708
vt 0.215203 0.063742
vt 0.233876 0.063742
vt 0.233876 0.318708
vt 0.878030 0.892384
vt 0.929164 0.892384
vt 0.929164 0.956126
vt 0.878030 0.956126
vt 0.929164 0.637417
vt 0.878030 0.637417
vt 0.878030 0.573676
vt 0.929164 0.573676
vt 0.929164 0.318709
vt 0.878030 0.318709
vt 0.878030 0.254967
vt 0.929164 0.254967
vt 0.929679 0.956126
vt 0.929679 0.892384
vt 0.980813 0.892384
vt 0.980813 0.956126
vt 0.980813 0.637417
vt 0.929679 0.637417
vt 0.929679 0.573676
vt 0.980813 0.573676
vt 0.980813 0.318709
vt 0.929679 0.318709
vt 0.929679 0.254967
vt 0.980813 0.254967
vt 0.981327 0.254967
vt 1.000000 0.254967
vt 1.000000 0.509934
vt 0.981327 0.509934
vt 0.401735 0.063742
vt 0.401735 0.318708
vt 0.383062 0.318708
vt 0.383062 0.063742
vt 0.236724 0.063742
vt 0.255396 0.063742
vt 0.255396 0.318709
vt 0.236724 0.318709
vt 0.741756 0.254967
vt 0.741756 0.509934
vt 0.723083 0.509934
vt 0.723083 0.254967
vt 0.981327 0.000000
vt 1.000000 0.000000
vt 1.000000 0.254967
vt 0.981327 0.254967
vt 0.423255 0.063742
vt 0.423255 0.318708
vt 0.404582 0.318708
vt 0.404582 0.063742
vt 0.258244 0.063742
vt 0.276917 0.063742
vt 0.276917 0.318708
vt 0.258244 0.318708
vt 0.169315 0.063742
vt 0.169315 0.318708
vt 0.150642 0.318708
vt 0.150642 0.063742
vt 0.063742 0.000000
vt 0.063742 0.063742
vt 0.000000 0.063742
vt 0.000000 0.000000
vt 0.318709 0.000000
vt 0.318709 0.063742
vt 0.000000 0.318709
vt 0.063742 0.318709
vt 0.382450 0.000000
vt 0.382450 0.063742
vt 0.063742 0.382450
vt 0.000000 0.382450
vt 0.637417 0.000000
vt 0.637417 0.063742
vt 0.382450 0.318709
vt 0.318709 0.318709
vt 0.318709 0.382450
vt 0.000000 0.637417
vt 0.063742 0.637417
vt 0.701159 0.000000
vt 0.701159 0.063742
vt 0.382450 0.382450
vt 0.063742 0.701159
vt 0.000000 0.701159
vt 0.701159 0.318709
vt 0.637417 0.318709
vt 0.637417 0.382450
vt 0.382450 0.637417
vt 0.318709 0.637417
vt 0.318709 0.701159
vt 0.701159 0.382450
vt 0.382450 0.701159
vt 0.701159 0.637417
vt 0.637417 0.637417
vt 0.637417 0.701159
vt 0.701159 0.701159
vt 0.771455 0.956126
vt 0.516488 0.956126
vt 0.516488 0.701159
vt 0.771455 0.701159
vt 0.513211 0.956126
vt 0.258244 0.956126
vt 0.258244 0.701159
vt 0.513211 0.701159
vt 0.701563 0.254967
vt 0.701563 0.000000
vt 0.956530 0.000000
vt 0.956530 0.254967
vt 0.000000 0.956126
vt 0.000000 0.701159
vt 0.254967 0.701159
vt 0.254967 0.956126
vn 0.000000 0.000000 1.000000
vn 0.000000 0.000000 1.000000
vn 0.000000 0.000000 1.000000
vn 0.000000 0.000000 1.000000
vn 0.000000 1.000000 0.000000
vn 0.000000 1.000000 0.000000
vn 0.000000 1.000000 0.000000
vn 0.000000 1.000000 0.000000
vn 0.000000 -1.000000 0.000000
vn 0.000000 -1.000000 0.000000
vn 0.000000 -1.000000 0.000000
vn 0.000000 -1.000000 0.000000
vn 1.000000 0.000000 0.000000
vn 1.000000 0.000000 0.000000
vn 1.000000 0.000000 0.000000
vn 1.000000 0.000000 0.000000
vn -1.000000 0.000000 0.000000
vn -1.000000 0.000000 0.000000
vn -1.000000 0.000000 0.000000
vn -1.000000 0.000000 0.000000
vn 0.000000 -1.000000 0.000000
vn 0.000000 -1.000000 0.000000
vn 0.000000 -1.000000 0.000000
vn 0.000000 -1.000000 0.000000
vn 0.000000 0.000000 1.000000
vn 0.000000 0.000000 1.000000
vn 0.000000 0.000000 1.000000
vn 0.000000 0.000000 1.000000
vn 0.000000 1.000000 0.000000
vn 0.000000 1.000000 0.000000
vn 0.000000 1.000000 0.000000
vn 0.000000 1.000000 0.000000
vn 0.000000 -1.000000 0.000000
vn 0.000000 -1.000000 0.000000
vn 0.000000 0.000000 1.000000
vn 0.000000 0.000000 1.000000
vn 0.000000 1.000000 0.000000
vn 0.000000 1.000000 0.000000
vn 0.000000 -1.000000 0.000000
vn 0.000000 -1.000000 0.000000
vn 0.000000 0.000000 1.000000
vn 0.000000 0.000000 1.000000
vn 0.000000 1.000000 0.000000
vn 0.000000 1.000000 0.000000
vn 1.000000 0.000000 0.000000
vn 1.000000 0.000000 0.000000
vn 1.000000 0.000000 0.000000
vn 1.000000 0.000000 0.000000
vn 0.000000 0.000000 1.000000
vn 0.000000 0.000000 1.000000
vn 0.000000 0.000000 1.000000
vn 0.000000 0.000000 1.000000
vn 0.000000 0.000000 1.000000
vn 0.000000 0.000000 1.000000
vn 0.000000 0.000000 1.000000
vn 0.000000 0.000000 1.000000
vn 0.000000 0.000000 1.000000
vn 0.000000 0.000000 1.000000
vn 0.000000 0.000000 1.000000
vn 0.000000 0.000000 1.000000
vn -1.000000 0.000000 0.000000
vn -1.000000 0.000000 0.000000
vn -1.000000 0.000000 0.000000
vn -1.000000 0.000000 0.000000
vn 1.000000 0.000000 0.000000
vn 1.000000 0.000000 0.000000
vn 0.000000 0.000000 1.000000
vn 0.000000 0.000000 1.000000
vn 0.000000 0.000000 1.000000
vn 0.000000 0.000000 1.000000
vn 0.000000 0.000000 1.000000
vn 0.000000 0.000000 1.000000
vn 0.000000 0.000000 1.000000
vn 0.000000 0.000000 1.000000
vn 0.000000 0.000000 1.000000
vn 0.000000 0.000000 1.000000
vn 0.000000 0.000000 1.000000
vn 0.000000 0.000000 1.000000
vn 0.000000 0.000000 1.000000
vn 0.000000 0.000000 1.000000
vn -1.000000 0.000000 0.000000
vn -1.000000 0.000000 0.000000
vn 1.000000 0.000000 0.000000
vn 1.000000 0.000000 0.000000
vn 0.000000 0.000000 1.000000
vn 0.000000 0.000000 1.000000
vn 0.000000 0.000000 1.000000
vn 0.000000 0.000000 1.000000
vn 0.000000 0.000000 1.000000
vn 0.000000 0.000000 1.000000
vn -1.000000 0.000000 0.000000
vn -1.000000 0.000000 0.000000
vn 0.000000 0.000000 1.000000
vn 0.000000 0.000000 1.000000
vn 0.000000 0.000000 1.000000
vn 0.000000 0.000000 1.000000
vn 0.000000 0.000000 1.000000
vn 0.000000 0.000000 1.000000
vn 0.000000 0.000000 1.000000
vn 0.000000 0.000000 1.000000
vn 0.000000 -1.000000 0.000000
vn 0.000000 -1.000000 0.000000
vn 0.000000 -1.000000 0.000000
vn 0.000000 -1.000000 0.000000
vn 1.000000 0.000000 0.000000
vn 1.000000 0.000000 0.000000
vn 1.000000 0.000000 0.000000
vn 1.000000 0.000000 0.000000
vn -1.000000 0.000000 0.000000
vn -1.000000 0.000000 0.000000
vn -1.000000 0.000000 0.000000
vn -1.000000 0.000000 0.000000
vn 0.000000 1.000000 0.000000
vn 0.000000 1.000000 0.000000
vn 0.000000 1.000000 0.000000
vn 0.000000 1.000000 0.000000
vn 0.000000 -1.000000 0.000000
vn 0.000000 -1.000000 0.000000
vn 0.000000 -1.000000 0.000000
vn 0.000000 -1.000000 0.000000
vn 1.000000 0.000000 0.000000
vn 1.000000 0.000000 0.000000
vn 1.000000 0.000000 0.000000
vn 1.000000 0.000000 0.000000
vn -1.000000 0.000000 0.000000
vn -1.000000 0.000000 0.000000
vn -1.000000 0.000000 0.000000
vn -1.000000 0.000000 0.000000
vn 0.000000 1.000000 0.000000
vn 0.000000 1.000000 0.000000
vn 0.000000 1.000000 0.000000
vn 0.000000 1.000000 0.000000
vn 0.000000 -1.000000 0.000000
vn 0.000000 -1.000000 0.000000
vn 0.000000 -1.000000 0.000000
vn 0.000000 -1.000000 0.000000
vn 1.000000 0.000000 0.000000
vn 1.000000 0.000000 0.000000
vn 1.000000 0.000000 0.000000
vn 1.000000 0.000000 0.000000
vn -1.000000 0.000000 0.000000
vn -1.000000 0.000000 0.000000
vn -1.000000 0.000000 0.000000
vn -1.000000 0.000000 0.000000
vn 0.000000 1.000000 0.000000
vn 0.000000 1.000000 0.000000
vn 0.000000 1.000000 0.000000
vn 0.000000 1.000000 0.000000
vn 0.000000 -1.000000 0.000000
vn 0.000000 -1.000000 0.000000
vn 0.000000 -1.000000 0.000000
vn 0.000000 -1.000000 0.000000
vn 1.000000 -0.000000 0.000000
vn 1.000000 -0.000000 0.000000
vn 1.000000 -0.000000 0.000000
vn 1.000000 -0.000000 0.000000
vn -1.000000 0.000000 0.000000
vn -1.000000 0.000000 0.000000
vn -1.000000 0.000000 0.000000
vn -1.000000 0.000000 0.000000
vn 0.000000 1.000000 0.000000
vn 0.000000 1.000000 0.000000
vn 0.000000 1.000000 0.000000
vn 0.000000 1.000000 0.000000
s 1
g pCube2
usemtl initialShadingGroup
f 22/113/1 54/114/2 55/115/3 1/116/4
s 2
f 23/57/5 24/58/6 5/59/7 3/60/8
s 3
f 7/69/9 21/70/10 22/71/11 1/72/12
s 4
f 8/1/13 49/2/14 50/3/15 2/4/16
s 5
f 55/13/17 56/14/18 7/15/19 1/16/20
s 3
f 9/78/21 8/79/22 2/80/23 10/77/24
s 1
f 2/132/25 50/133/26 51/126/27 10/125/28
s 2
f 4/67/29 6/68/30 12/65/31 11/66/32
s 3
f 10/77/24 14/76/33 13/75/34 9/78/21
s 1
f 52/122/35 14/121/36 10/125/28 51/126/27
s 2
f 12/65/31 16/64/37 15/63/38 11/66/32
s 3
f 17/74/39 13/75/34 14/76/33 18/73/40
s 1
f 14/121/36 52/122/35 53/118/41 18/117/42
s 2
f 15/63/38 16/64/37 20/61/43 19/62/44
s 3
f 18/73/40 22/71/11 21/70/10 17/74/39
s 1
f 54/114/2 22/113/1 18/117/42 53/118/41
s 2
f 20/61/43 24/58/6 23/57/5 19/62/44
s 4
f 25/10/45 6/11/46 4/12/47 26/9/48
s 1
f 27/146/49 26/145/50 4/148/51 11/147/52
f 11/147/52 15/144/53 28/140/54 27/146/49
f 29/141/55 28/140/54 15/144/53 19/142/56
f 19/142/56 23/135/57 30/131/58 29/141/55
f 31/130/59 30/131/58 23/135/57 3/136/60
s 5
f 3/23/61 5/24/62 32/21/63 31/22/64
s 4
f 26/9/48 34/8/65 33/7/66 25/10/45
s 1
f 35/139/67 34/143/68 26/145/50 27/146/49
s off
f 58/149/69 60/150/70 59/151/71 57/152/72
s 1
f 37/129/73 36/134/74 28/140/54 29/141/55
s off
f 62/153/75 64/154/76 63/155/77 61/156/78
s 1
f 31/130/59 39/124/79 38/123/80 30/131/58
s 5
f 32/21/63 40/20/81 39/19/82 31/22/64
s 4
f 41/6/83 33/7/66 34/8/65 42/5/84
s 1
f 43/138/85 42/137/86 34/143/68 35/139/67
f 36/134/74 44/127/87 43/138/85 35/139/67
f 45/128/88 44/127/87 36/134/74 37/129/73
f 38/123/80 46/120/89 45/128/88 37/129/73
f 47/119/90 46/120/89 38/123/80 39/124/79
s 5
f 39/19/82 40/20/81 48/17/91 47/18/92
s 4
f 42/5/84 50/3/15 49/2/14 41/6/83
s 1
f 51/126/27 50/133/26 42/137/86 43/138/85
s off
f 66/157/93 68/158/94 67/159/95 65/160/96
s 1
f 53/118/41 52/122/35 44/127/87 45/128/88
s off
f 70/161/97 72/162/98 71/163/99 69/164/100
s 1
f 47/119/90 55/115/3 54/114/2 46/120/89
s 5
f 48/17/91 56/14/18 55/13/17 47/18/92
s off
f 57/81/101 27/82/102 28/83/103 58/84/104
f 58/25/105 28/26/106 36/27/107 60/28/108
f 57/29/109 59/30/110 35/31/111 27/32/112
f 59/85/113 60/86/114 36/87/115 35/88/116
f 61/89/117 29/90/118 30/91/119 62/92/120
f 62/33/121 30/34/122 38/35/123 64/36/124
f 61/37/125 63/38/126 37/39/127 29/40/128
f 63/93/129 64/94/130 38/95/131 37/96/132
f 65/97/133 43/98/134 44/99/135 66/100/136
f 66/41/137 44/42/138 52/43/139 68/44/140
f 65/45/141 67/46/142 51/47/143 43/48/144
f 67/101/145 68/102/146 52/103/147 51/104/148
f 69/105/149 45/106/150 46/107/151 70/108/152
f 70/49/153 46/50/154 54/51/155 72/52/156
f 69/53/157 71/54/158 53/55/159 45/56/160
f 71/109/161 72/110/162 54/111/163 53/112/164
