# This file uses meters as units for non-parametric coordinates.

mtllib tv.mtl
g default
v 80.696899 1.767204 -68.650558
v 80.696899 0.223274 -68.650558
v 80.696899 0.223274 -41.190338
v 80.696899 0.223274 -13.730114
v 80.696899 0.223274 13.730116
v 80.696899 0.223274 41.190338
v 80.696899 0.223274 68.650558
v 80.696899 1.767204 68.650558
v 80.696899 1.767204 41.190338
v 80.696899 1.767204 13.730116
v 80.696899 1.767204 -13.730114
v 80.696899 1.767204 -41.190338
v 26.898966 6.273708 -68.650558
v 26.898966 0.000000 -68.650558
v 26.898966 0.000000 -41.190338
v 26.898966 0.000000 -13.730114
v 26.898966 0.000000 13.730116
v 26.898966 0.000000 41.190338
v 26.898966 0.000000 68.650558
v 26.898966 6.273708 68.650558
v 26.898966 6.273708 41.190338
v 26.898966 6.273708 -41.190338
v -26.898972 6.273708 -68.650558
v -26.898972 0.000000 -68.650558
v -26.898972 0.000000 -41.190338
v -26.898972 0.000000 -13.730114
v -26.898972 0.000000 13.730116
v -26.898972 0.000000 41.190338
v -26.898972 0.000000 68.650558
v -26.898972 6.273708 68.650558
v -26.898972 6.273708 41.190338
v -26.898972 6.273708 -41.190338
v -80.696899 1.767204 -68.650558
v -80.696899 0.223274 -68.650558
v -80.696899 0.223274 -41.190338
v -80.696899 0.223274 -13.730114
v -80.696899 0.223274 13.730116
v -80.696899 0.223274 41.190338
v -80.696899 0.223274 68.650558
v -80.696899 1.767204 68.650558
v -80.696899 1.767204 41.190338
v -80.696899 1.767204 13.730116
v -80.696899 1.767204 -13.730114
v -80.696899 1.767204 -41.190338
v -21.071440 36.878113 9.933509
v -21.071440 36.878113 -9.933506
v 21.071434 36.878113 9.933509
v 21.071434 36.878113 -9.933506
v 31.003950 6.273708 19.866020
v 21.071434 16.206223 9.933509
v -31.003952 6.273708 19.866020
v -21.071440 16.206223 9.933509
v 31.003950 6.273708 -19.866020
v 21.071434 16.206223 -9.933506
v -31.003952 6.273708 -19.866020
v -21.071440 16.206223 -9.933506
v -163.959427 36.878113 9.933509
v -163.959427 36.878113 -9.933506
v -163.959427 213.072754 9.933509
v -163.959427 213.072754 -9.933506
v 163.959427 36.878113 9.933509
v 163.959427 36.878113 -9.933506
v 163.959427 213.072754 -9.933506
v 163.959427 213.072754 9.933509
v -154.739365 41.832153 9.933509
v -154.739365 208.118652 9.933509
v -19.886511 41.832153 9.933509
v 19.886507 41.832153 9.933509
v 154.739365 41.832153 9.933509
v 154.739365 208.118652 9.933509
v -154.739365 41.832153 3.630288
v -154.739365 208.118652 3.630288
v -19.886511 41.832153 3.630288
v 19.886507 41.832153 3.630288
v 154.739365 41.832153 3.630288
v 154.739365 208.118652 3.630288
vt 0.792016 0.061812
vt 0.792016 0.020603
vt 0.834895 0.020603
vt 0.834895 0.061812
vt 0.771414 0.000000
vt 0.771414 0.082414
vt 0.857824 0.061812
vt 0.857824 0.020603
vt 0.900703 0.020603
vt 0.900703 0.061812
vt 0.837222 0.082414
vt 0.837222 0.000000
vt 0.040451 0.719431
vt 0.040451 0.680555
vt 0.382441 0.680555
vt 0.382441 0.719431
vt 0.040451 0.038876
vt 0.040451 0.000000
vt 0.382441 0.000000
vt 0.382441 0.038876
vt 0.659662 0.680868
vt 0.659647 0.683832
vt 0.606548 0.683560
vt 0.552974 0.683612
vt 0.498651 0.683519
vt 0.444980 0.683663
vt 0.391737 0.684593
vt 0.391693 0.681629
vt 0.444947 0.680700
vt 0.498641 0.680555
vt 0.552974 0.680648
vt 0.606558 0.680597
vt 0.660217 0.999274
vt 0.607007 0.999971
vt 0.553315 1.000000
vt 0.499034 0.999831
vt 0.445595 0.999802
vt 0.392551 0.999472
vt 0.392575 0.996509
vt 0.445616 0.996838
vt 0.499049 0.996867
vt 0.553323 0.997036
vt 0.606994 0.997008
vt 0.660192 0.996309
vt 0.382441 0.665596
vt 0.047576 0.665596
vt 0.054257 0.662513
vt 0.382441 0.662513
vt 0.047576 0.053835
vt 0.382441 0.053835
vt 0.382441 0.056918
vt 0.054257 0.056918
vt 0.725283 0.783567
vt 0.672702 0.783567
vt 0.672702 0.680555
vt 0.725283 0.680555
vt 0.725283 0.886579
vt 0.672702 0.886579
vt 0.777864 0.783567
vt 0.777864 0.680555
vt 0.725283 0.989591
vt 0.672702 0.989591
vt 0.777863 0.886579
vt 0.830444 0.783567
vt 0.830444 0.680555
vt 0.777863 0.989592
vt 0.830444 0.886579
vt 0.883025 0.783567
vt 0.883025 0.680555
vt 0.830444 0.989592
vt 0.883025 0.886579
vt 0.935605 0.783567
vt 0.935605 0.680555
vt 0.883025 0.989592
vt 0.935605 0.886579
vt 0.935605 0.989592
vt 0.444673 0.787699
vt 0.392229 0.788188
vt 0.445090 0.893148
vt 0.392565 0.892862
vt 0.485293 0.779129
vt 0.485821 0.901327
vt 0.566659 0.779166
vt 0.507983 0.802978
vt 0.509670 0.877514
vt 0.607359 0.787391
vt 0.567011 0.901375
vt 0.607631 0.892874
vt 0.659870 0.787710
vt 0.542914 0.801960
vt 0.544200 0.878461
vt 0.660086 0.892508
vt 0.001575 0.399789
vt 0.040451 0.399789
vt 0.001575 0.680555
vt 0.424109 0.680555
vt 0.424109 0.038876
vt 0.040451 0.319642
vt 0.001575 0.319642
vt 0.001575 0.038876
vt 0.047576 0.399789
vt 0.054257 0.399789
vt 0.047576 0.319642
vt 0.054257 0.319642
vt 0.662604 0.683622
vt 0.671872 0.787274
vt 0.672114 0.892891
vt 0.663150 0.996509
vt 0.380223 0.787847
vt 0.388777 0.684408
vt 0.380538 0.893303
vt 0.389617 0.996714
vt 0.000000 0.399789
vt 0.000000 0.319642
vt 0.809341 0.318482
vt 0.809341 0.400948
vt 0.768890 0.400948
vt 0.768890 0.318482
vt 0.768890 0.038876
vt 0.768890 0.680555
vn -0.000000 0.000000 -1.000000
vn -0.000000 0.000000 -1.000000
vn -0.000000 0.000000 -1.000000
vn -0.000000 0.000000 -1.000000
vn 0.002075 -0.999998 0.000000
vn 0.002075 -0.999998 0.000000
vn 0.004150 -0.999991 0.000000
vn 0.004150 -0.999991 0.000000
vn 0.002075 -0.999998 0.000000
vn 0.004150 -0.999991 0.000000
vn 0.002075 -0.999998 0.000000
vn 0.004150 -0.999991 0.000000
vn 0.002075 -0.999998 0.000000
vn 0.004150 -0.999991 0.000000
vn 0.002075 -0.999998 0.000000
vn 0.004150 -0.999991 0.000000
vn -0.000000 0.000000 1.000000
vn -0.000000 0.000000 1.000000
vn -0.000000 0.000000 1.000000
vn -0.000000 0.000000 1.000000
vn 0.040460 0.999180 0.001493
vn 0.041847 0.999124 0.000000
vn 0.083475 0.996510 0.000000
vn 0.085183 0.996360 0.003372
vn 0.041847 0.999124 0.000000
vn 0.040460 0.999180 -0.001493
vn 0.085183 0.996360 -0.003372
vn 0.083475 0.996510 0.000000
vn 0.000000 0.000000 -1.000000
vn 0.000000 0.000000 -1.000000
vn -0.002075 -0.999998 0.000000
vn -0.002075 -0.999998 0.000000
vn -0.002075 -0.999998 0.000000
vn -0.002075 -0.999998 0.000000
vn -0.002075 -0.999998 0.000000
vn -0.002075 -0.999998 0.000000
vn 0.000000 0.000000 1.000000
vn 0.000000 0.000000 1.000000
vn -0.040460 0.999180 0.001493
vn -0.041847 0.999124 0.000000
vn -0.041847 0.999124 0.000000
vn -0.040460 0.999180 -0.001493
vn 0.000000 0.000000 -1.000000
vn 0.000000 0.000000 -1.000000
vn -0.004150 -0.999991 0.000000
vn -0.004150 -0.999991 0.000000
vn -0.004150 -0.999991 0.000000
vn -0.004150 -0.999991 0.000000
vn -0.004150 -0.999991 0.000000
vn -0.004150 -0.999991 0.000000
vn 0.000000 0.000000 1.000000
vn 0.000000 0.000000 1.000000
vn -0.085183 0.996360 0.003372
vn -0.083475 0.996510 0.000000
vn -0.083475 0.996510 0.000000
vn -0.085183 0.996360 -0.003372
vn 0.000000 0.707107 0.707107
vn 0.000000 0.707107 0.707107
vn 0.000000 0.707107 0.707107
vn 0.000000 0.707107 0.707107
vn 0.707107 0.707107 0.000000
vn 0.707107 0.707107 0.000000
vn 0.707107 0.707107 0.000000
vn 0.707107 0.707107 0.000000
vn -0.707107 0.707107 0.000000
vn -0.707107 0.707107 0.000000
vn -0.707107 0.707107 0.000000
vn -0.707107 0.707107 0.000000
vn 0.000000 0.707107 -0.707107
vn 0.000000 0.707107 -0.707107
vn 0.000000 0.707107 -0.707107
vn 0.000000 0.707107 -0.707107
vn 0.065562 0.997845 0.002678
vn 0.089093 0.996019 0.002872
vn 0.065562 0.997845 -0.002678
vn 0.089093 0.996019 -0.002872
vn -0.065562 0.997845 0.002678
vn -0.065562 0.997845 -0.002678
vn -0.089093 0.996019 0.002872
vn -0.089093 0.996019 -0.002872
vn -1.000000 0.000000 0.000000
vn -1.000000 0.000000 0.000000
vn -1.000000 0.000000 0.000000
vn -1.000000 0.000000 0.000000
vn 0.000000 0.000000 1.000000
vn 0.000000 0.000000 1.000000
vn 0.000000 0.000000 1.000000
vn 0.000000 0.000000 1.000000
vn 1.000000 0.000000 0.000000
vn 1.000000 0.000000 0.000000
vn 1.000000 0.000000 0.000000
vn 1.000000 0.000000 0.000000
vn 0.000000 0.000000 -1.000000
vn 0.000000 0.000000 -1.000000
vn 0.000000 0.000000 -1.000000
vn 0.000000 0.000000 -1.000000
vn -1.000000 0.000000 0.000000
vn -1.000000 0.000000 0.000000
vn -1.000000 0.000000 0.000000
vn -1.000000 0.000000 0.000000
vn 1.000000 0.000000 0.000000
vn 1.000000 0.000000 0.000000
vn 1.000000 0.000000 0.000000
vn 1.000000 0.000000 0.000000
vn 0.000000 -1.000000 0.000000
vn 0.000000 -1.000000 0.000000
vn 0.000000 -1.000000 0.000000
vn 0.000000 -1.000000 0.000000
vn 0.000000 0.000000 1.000000
vn 0.000000 0.000000 1.000000
vn 0.000000 0.000000 1.000000
vn 0.000000 0.000000 1.000000
vn 0.000000 0.000000 1.000000
vn 0.000000 0.000000 1.000000
vn 0.000000 1.000000 0.000000
vn 0.000000 1.000000 0.000000
vn 0.000000 1.000000 0.000000
vn 0.000000 1.000000 0.000000
vn 0.000000 -1.000000 0.000000
vn 0.000000 -1.000000 0.000000
vn 0.000000 -1.000000 0.000000
vn 0.000000 -1.000000 0.000000
vn 0.000000 0.000000 -1.000000
vn 0.000000 0.000000 -1.000000
vn 0.000000 0.000000 -1.000000
vn 0.000000 0.000000 -1.000000
vn 0.000000 0.000000 -1.000000
vn 0.000000 0.000000 -1.000000
vn 1.000000 0.000006 0.000000
vn 1.000000 0.000006 0.000000
vn 1.000000 0.000006 0.000000
vn 1.000000 0.000006 0.000000
vn 1.000000 0.000006 0.000000
vn 1.000000 0.000006 0.000000
vn 1.000000 0.000006 0.000000
vn 1.000000 0.000006 0.000000
vn 1.000000 0.000006 0.000000
vn 1.000000 0.000006 0.000000
vn 1.000000 0.000006 0.000000
vn 1.000000 0.000006 0.000000
vn -1.000000 -0.000006 0.000000
vn -1.000000 -0.000006 0.000000
vn -1.000000 -0.000006 0.000000
vn -1.000000 -0.000006 0.000000
vn -1.000000 -0.000006 0.000000
vn -1.000000 -0.000006 0.000000
vn -1.000000 -0.000006 0.000000
vn -1.000000 -0.000006 0.000000
vn -1.000000 -0.000006 0.000000
vn -1.000000 -0.000006 0.000000
vn -1.000000 -0.000006 0.000000
vn -1.000000 -0.000006 0.000000
vn -0.000000 0.000000 1.000000
vn -0.000000 0.000000 1.000000
vn -0.000000 0.000000 1.000000
vn -0.000000 0.000000 1.000000
vn 0.000000 0.000000 1.000000
vn 0.000000 0.000000 1.000000
vn 0.000000 0.000000 1.000000
vn 0.000000 0.000000 1.000000
vn 0.000000 0.000000 1.000000
vn 0.000000 0.000000 1.000000
vn 0.000000 0.000000 1.000000
vn 0.000000 0.000000 1.000000
vn 0.000000 0.000000 1.000000
vn 0.000000 0.000000 1.000000
vn 0.000000 0.000000 1.000000
vn 0.000000 0.000000 1.000000
vn 0.000000 0.000000 1.000000
vn 0.000000 0.000000 1.000000
vn 0.000000 0.000000 1.000000
vn 0.000000 0.000000 1.000000
vn 0.000000 0.000000 1.000000
vn 0.000000 0.000000 1.000000
vn 0.000000 0.000000 1.000000
vn 0.000000 0.000000 1.000000
vn 1.000000 0.000000 0.000000
vn 1.000000 0.000000 0.000000
vn 1.000000 0.000000 0.000000
vn 1.000000 0.000000 0.000000
vn 0.000000 1.000000 0.000000
vn 0.000000 1.000000 0.000000
vn 0.000000 1.000000 0.000000
vn 0.000000 1.000000 0.000000
vn 0.000000 1.000000 0.000000
vn 0.000000 1.000000 0.000000
vn 0.000000 1.000000 0.000000
vn 0.000000 1.000000 0.000000
vn 0.000000 1.000000 0.000000
vn 0.000000 1.000000 0.000000
vn 0.000000 1.000000 0.000000
vn 0.000000 1.000000 0.000000
vn -1.000000 0.000000 0.000000
vn -1.000000 0.000000 0.000000
vn -1.000000 0.000000 0.000000
vn -1.000000 0.000000 0.000000
vn 0.000000 -1.000000 0.000000
vn 0.000000 -1.000000 0.000000
vn 0.000000 -1.000000 0.000000
vn 0.000000 -1.000000 0.000000
s 1
g pCube1
usemtl initialShadingGroup
f 13/89/1 1/22/2 2/105/3 14/106/4
s 2
f 15/53/5 14/54/6 2/55/7 3/56/8
f 16/59/9 15/53/5 3/56/8 4/60/10
f 17/64/11 16/59/9 4/60/10 5/65/12
f 18/68/13 17/64/11 5/65/12 6/69/14
f 19/72/15 18/68/13 6/69/14 7/73/16
s 3
f 20/78/17 19/109/18 7/110/19 8/27/20
s 4
f 21/77/21 20/78/22 8/27/23 9/26/24
f 13/89/25 22/86/26 12/23/27 1/22/28
s 1
f 23/92/29 13/89/1 14/106/4 24/107/30
s 2
f 25/57/31 24/58/32 14/54/6 15/53/5
f 26/63/33 25/57/31 15/53/5 16/59/9
f 27/67/34 26/63/33 16/59/9 17/64/11
f 28/71/35 27/67/34 17/64/11 18/68/13
f 29/75/36 28/71/35 18/68/13 19/72/15
s 3
f 30/80/37 29/111/38 19/109/18 20/78/17
s 4
f 31/79/39 30/80/40 20/78/22 21/77/21
f 23/92/41 32/88/42 22/86/26 13/89/25
s 1
f 33/44/43 23/92/29 24/107/30 34/108/44
s 2
f 35/61/45 34/62/46 24/58/32 25/57/31
f 36/66/47 35/61/45 25/57/31 26/63/33
f 37/70/48 36/66/47 26/63/33 27/67/34
f 38/74/49 37/70/48 27/67/34 28/71/35
f 39/76/50 38/74/49 28/71/35 29/75/36
s 3
f 40/39/51 39/112/52 29/111/38 30/80/37
s 4
f 41/40/53 40/39/54 30/80/40 31/79/39
f 33/44/55 44/43/56 32/88/42 23/92/41
s off
f 49/81/57 50/84/58 52/85/59 51/82/60
f 50/7/61 49/11/62 53/12/63 54/8/64
f 51/5/65 52/2/66 56/1/67 55/6/68
f 54/90/69 53/83/70 55/87/71 56/91/72
s 4
f 49/81/73 21/77/21 9/26/24 10/25/74
f 53/83/75 49/81/73 10/25/74 11/24/76
f 22/86/26 53/83/75 11/24/76 12/23/27
f 51/82/77 31/79/39 21/77/21 49/81/73
f 32/88/42 55/87/78 53/83/75 22/86/26
f 42/41/79 41/40/53 31/79/39 51/82/77
f 43/42/80 42/41/79 51/82/77 55/87/78
f 44/43/56 43/42/80 55/87/78 32/88/42
s off
f 56/1/81 52/2/82 45/3/83 46/4/84
f 52/113/85 50/114/86 47/98/87 45/94/88
f 50/7/89 54/8/90 48/9/91 47/10/92
f 54/115/93 56/116/94 46/117/95 48/118/96
f 58/13/97 57/14/98 59/15/99 60/16/100
f 61/17/101 62/18/102 63/19/103 64/20/104
f 46/93/105 45/94/106 57/14/107 58/95/108
f 72/48/109 71/47/110 73/102/111 74/104/112 75/52/113 76/51/114
f 60/96/115 59/15/116 64/20/117 63/97/118
f 47/98/119 48/99/120 62/100/121 61/17/122
f 60/96/123 63/97/124 62/119/125 48/118/126 46/117/127 58/120/128
f 2/21/129 1/22/130 12/23/131 11/24/132 10/25/133 9/26/134 8/27/135 7/28/136 6/29/137 5/30/138 4/31/139 3/32/140
f 34/33/141 35/34/142 36/35/143 37/36/144 38/37/145 39/38/146 40/39/147 41/40/148 42/41/149 43/42/150 44/43/151 33/44/152
f 59/15/153 57/14/154 65/46/155 66/45/156
f 57/14/157 45/94/158 67/101/159 65/46/160
f 45/94/161 47/98/162 68/103/163 67/101/164
f 47/98/165 61/17/166 69/49/167 68/103/168
f 61/17/169 64/20/170 70/50/171 69/49/172
f 64/20/173 59/15/174 66/45/175 70/50/176
f 66/45/177 65/46/178 71/47/179 72/48/180
f 65/46/181 67/101/182 73/102/183 71/47/184
f 67/101/185 68/103/186 74/104/187 73/102/188
f 68/103/189 69/49/190 75/52/191 74/104/192
f 69/49/193 70/50/194 76/51/195 75/52/196
f 70/50/197 66/45/198 72/48/199 76/51/200
