# This file uses meters as units for non-parametric coordinates.

mtllib vaatwasser.mtl
g default
v -52.673779 35.155518 113.224030
v 79.306446 35.155518 113.224030
v -52.673779 162.837860 159.591614
v 79.306446 162.837860 159.591614
v -52.673779 166.602676 149.224457
v 79.306446 166.602676 149.224457
v -52.673779 38.920330 102.856857
v 79.306446 38.920330 102.856857
v -1.572094 128.053177 146.341797
v 28.204761 128.053177 146.341797
v 28.204761 137.077148 149.618835
v -1.572094 137.077148 149.618835
v -1.572094 124.969971 156.424103
v 28.204761 124.969971 156.424103
v 28.204761 133.993942 159.701157
v -1.572094 133.993942 159.701157
v -73.710202 0.000000 113.110306
v 101.592090 0.000000 113.110306
v -73.710202 193.059494 113.110306
v 101.592090 193.059494 113.110306
v -73.710202 193.059494 13.110310
v 101.592090 193.059494 13.110310
v -73.710202 0.000000 13.110310
v 101.592090 0.000000 13.110310
v -73.710202 168.927063 13.110310
v 101.592090 168.927063 13.110310
v 101.592090 168.927063 113.110306
v -73.710202 168.927063 113.110306
v -73.710202 24.132439 113.110306
v 101.592090 24.132439 113.110306
v 101.592090 24.132439 13.110310
v -73.710202 24.132439 13.110310
v -73.710202 180.993286 13.110310
v 101.592090 180.993286 13.110310
v 101.592090 180.993286 113.110306
v -73.710202 180.993286 113.110306
v -51.797375 0.000000 113.110306
v -51.797375 0.000000 13.110310
v -51.797375 24.132439 13.110310
v -51.797375 168.927063 13.110310
v -51.797375 180.993286 13.110310
v -51.797375 193.059494 13.110310
v -51.797375 193.059494 113.110306
v -51.797375 180.993286 113.110306
v -51.797375 168.927063 113.110306
v -51.797375 24.132439 113.110306
v 79.679310 24.132420 13.110300
v 79.679310 -0.000019 13.110300
v 79.679310 0.000000 113.110306
v 79.679310 24.132439 113.110306
v 79.679310 168.927063 113.110306
v 79.679310 180.993286 113.110306
v 79.679310 193.059494 113.110306
v 79.679310 193.059494 13.110310
v 79.679310 180.993286 13.110310
v 79.679310 168.927063 13.110310
v -51.797375 24.132439 127.544861
v -51.797375 0.000000 127.544861
v 79.679310 0.000000 127.544861
v 79.679310 24.132439 127.544861
v -73.710202 0.000000 127.544861
v -73.710202 24.132439 127.544861
v 101.592090 24.132439 127.544861
v 101.592090 0.000000 127.544861
v -51.797375 193.059494 127.544861
v -51.797375 180.993286 127.544861
v 79.679310 180.993286 127.544861
v 79.679310 193.059494 127.544861
v -73.710202 180.993286 127.544861
v -73.710202 193.059494 127.544861
v 101.592090 180.993286 127.544861
v 101.592090 193.059494 127.544861
v -51.797375 36.198654 113.110306
v -73.710202 36.198654 113.110306
v -73.710202 36.198654 13.110310
v -51.797375 36.198654 13.110310
v 79.679310 36.198654 13.110310
v 101.592090 36.198654 13.110310
v 101.592090 36.198654 113.110306
v 79.679310 36.198654 113.110306
v 2.984546 36.198654 13.110310
v 2.984546 24.132439 13.110310
v 2.984546 0.000000 13.110310
v 2.984546 0.000000 113.110306
v 2.984546 0.000000 127.544861
v 2.984546 24.132439 127.544861
v 2.984546 24.132439 113.110306
v 2.984546 36.198654 113.110306
v 2.984546 168.927063 113.110306
v 2.984546 180.993286 113.110306
v 2.984546 180.993286 127.544861
v 2.984546 193.059494 127.544861
v 2.984546 193.059494 113.110306
v 2.984546 193.059494 13.110310
v 2.984546 180.993286 13.110310
v 2.984546 168.927063 13.110310
v 24.897327 0.000000 113.110306
v 24.897327 -0.000019 13.110300
v 24.897327 24.132420 13.110300
v 24.897327 36.198654 13.110310
v 24.897327 168.927063 13.110310
v 24.897327 180.993286 13.110310
v 24.897327 193.059494 13.110310
v 24.897327 193.059494 113.110306
v 24.897327 193.059494 127.544861
v 24.897327 180.993286 127.544861
v 24.897327 180.993286 113.110306
v 24.897327 168.927063 113.110306
v 24.897327 36.198654 113.110306
v 24.897327 24.132439 113.110306
v 24.897327 24.132439 127.544861
v 24.897327 0.000000 127.544861
v -51.797375 168.927063 94.284569
v -51.797375 36.198654 94.284569
v 2.984546 168.927063 94.284569
v 2.984546 36.198654 94.284569
v 24.897327 36.198654 94.284569
v 24.897327 168.927063 94.284569
v 79.679310 36.198654 94.284569
v 79.679310 168.927063 94.284569
vt 0.544326 0.040600
vt 0.563537 0.047577
vt 0.477615 0.284179
vt 0.458404 0.277203
vt 0.351443 0.047580
vt 0.370654 0.040603
vt 0.456576 0.277206
vt 0.437365 0.284182
vt 0.456477 0.040605
vt 0.473199 0.046677
vt 0.467486 0.065360
vt 0.450764 0.059288
vt 0.496119 0.059280
vt 0.479397 0.065352
vt 0.473684 0.046669
vt 0.490406 0.040597
vt 0.540576 0.637876
vt 0.355271 0.637876
vt 0.355271 0.391923
vt 0.540576 0.391923
vt 0.540576 0.660235
vt 0.355271 0.660235
vt 0.355271 0.369563
vt 0.540576 0.369563
vt 0.540576 0.682594
vt 0.355271 0.682594
vt 0.355271 0.324845
vt 0.540576 0.324845
vt 0.328523 0.682594
vt 0.328523 0.660235
vt 0.328523 0.369563
vt 0.328523 0.324845
vt 0.185305 0.670781
vt 0.000000 0.670781
vt 0.000000 0.424828
vt 0.185305 0.424828
vt 0.185305 0.693140
vt 0.000000 0.693140
vt 0.000000 0.402469
vt 0.185305 0.402469
vt 0.185305 0.715499
vt 0.000000 0.715499
vt 0.000000 0.357750
vt 0.185305 0.357750
vt 0.212053 0.693140
vt 0.212053 0.715499
vt 0.212053 0.357750
vt 0.212053 0.402469
vt 0.252122 0.603703
vt 0.252122 0.357750
vt 0.287007 0.357750
vt 0.287007 0.603703
vt 0.248807 0.357750
vt 0.248807 0.603703
vt 0.213922 0.603703
vt 0.213922 0.357750
vt 0.848047 0.823057
vt 0.848047 0.570798
vt 0.867863 0.570798
vt 0.867863 0.823057
vt 0.721986 0.252259
vt 0.721986 0.000000
vt 0.741802 0.000000
vt 0.741802 0.252259
vt 0.412564 0.097031
vt 0.412564 0.040606
vt 0.431669 0.040606
vt 0.431669 0.097031
vt 0.412569 0.040606
vt 0.412569 0.097031
vt 0.393463 0.097031
vt 0.393463 0.040606
vt 0.783115 0.040606
vt 0.968420 0.040606
vt 0.968420 0.142120
vt 0.783115 0.142120
vt 0.783115 0.000000
vt 0.968420 0.000000
vt 0.968420 0.182725
vt 0.783115 0.182725
vt 0.756367 0.040606
vt 0.756367 0.142120
vt 0.756367 0.000000
vt 0.968420 0.284239
vt 0.783115 0.284239
vt 0.756367 0.182725
vt 0.783115 0.324845
vt 0.968420 0.324845
vt 0.756367 0.284239
vt 0.756367 0.324845
vt 0.542445 0.365450
vt 0.727750 0.365450
vt 0.727750 0.466964
vt 0.542445 0.466964
vt 0.542445 0.324845
vt 0.727750 0.324845
vt 0.754498 0.365450
vt 0.754498 0.466964
vt 0.727750 0.507570
vt 0.542445 0.507570
vt 0.754498 0.324845
vt 0.754498 0.507570
vt 0.727750 0.609084
vt 0.542445 0.609084
vt 0.754498 0.609084
vt 0.542445 0.649689
vt 0.727750 0.649689
vt 0.754498 0.649689
vt 0.668506 0.040606
vt 0.695254 0.040606
vt 0.695254 0.142119
vt 0.668506 0.142119
vt 0.695254 0.000000
vt 0.668506 0.000000
vt 0.695254 0.182725
vt 0.668506 0.182725
vt 0.668506 0.284239
vt 0.695254 0.284239
vt 0.695254 0.324844
vt 0.668506 0.324844
vt 0.721994 0.284239
vt 0.695246 0.284239
vt 0.695246 0.182725
vt 0.721994 0.182725
vt 0.695246 0.324844
vt 0.721994 0.324844
vt 0.695246 0.142119
vt 0.721994 0.142119
vt 0.721994 0.040606
vt 0.695246 0.040606
vt 0.695246 0.000000
vt 0.721994 0.000000
vt 0.325208 0.499869
vt 0.325208 0.601383
vt 0.290323 0.601383
vt 0.290323 0.499869
vt 0.325208 0.459264
vt 0.290323 0.459264
vt 0.325208 0.357750
vt 0.290323 0.357750
vt 0.786927 0.814431
vt 0.786927 0.712917
vt 0.821812 0.712917
vt 0.821812 0.814431
vt 0.786927 0.672312
vt 0.821812 0.672312
vt 0.786927 0.570798
vt 0.821812 0.570798
vt 0.431664 0.097519
vt 0.431664 0.040606
vt 0.448912 0.040606
vt 0.448912 0.097519
vt 0.213922 0.934853
vt 0.213922 0.682594
vt 0.457966 0.682594
vt 0.457966 0.934853
vt 0.542445 0.901956
vt 0.542445 0.649689
vt 0.720009 0.747365
vt 0.720009 0.804280
vt 0.786497 0.649689
vt 0.737258 0.747365
vt 0.786497 0.901956
vt 0.737258 0.804280
vt 0.040606 0.290672
vt 0.040606 0.044719
vt 0.142120 0.044719
vt 0.142120 0.290672
vt 0.000000 0.044719
vt 0.000000 0.290672
vt 0.040606 0.022359
vt 0.142120 0.022359
vt 0.182725 0.044719
vt 0.182725 0.290672
vt 0.040606 0.313031
vt 0.142120 0.313031
vt 0.000000 0.022359
vt 0.000000 0.313031
vt 0.040606 0.000000
vt 0.142120 0.000000
vt 0.182725 0.022359
vt 0.284239 0.044719
vt 0.284239 0.290672
vt 0.182725 0.313031
vt 0.040606 0.357750
vt 0.142120 0.357750
vt 0.000000 0.000000
vt 0.000000 0.357750
vt 0.182725 0.000000
vt 0.284239 0.022359
vt 0.324845 0.044719
vt 0.324845 0.290672
vt 0.284239 0.313031
vt 0.182725 0.357750
vt 0.284239 0.000000
vt 0.324845 0.022359
vt 0.324845 0.313031
vt 0.284239 0.357750
vt 0.324845 0.000000
vt 0.324845 0.357750
vt 0.350882 0.284239
vt 0.328523 0.284239
vt 0.328523 0.182725
vt 0.350882 0.182725
vt 0.328523 0.324845
vt 0.350882 0.324845
vt 0.328523 0.142120
vt 0.350882 0.142120
vt 0.596835 0.284239
vt 0.596835 0.324845
vt 0.328523 0.040606
vt 0.350882 0.040606
vt 0.619195 0.284239
vt 0.619195 0.324845
vt 0.350882 0.000000
vt 0.328523 0.000000
vt 0.596835 0.182725
vt 0.619195 0.182725
vt 0.596835 0.000000
vt 0.596835 0.040606
vt 0.596835 0.142120
vt 0.619195 0.142120
vt 0.619195 0.000000
vt 0.619195 0.040606
vt 0.667384 0.284239
vt 0.622665 0.284239
vt 0.622665 0.182725
vt 0.667384 0.182725
vt 0.622665 0.324845
vt 0.667384 0.324845
vt 0.622665 0.142120
vt 0.667384 0.142120
vt 0.622665 0.040606
vt 0.667384 0.040606
vt 0.667384 0.000000
vt 0.622665 0.000000
vt 0.825127 0.611403
vt 0.847486 0.611403
vt 0.847486 0.712917
vt 0.825127 0.712917
vt 0.825127 0.570798
vt 0.847486 0.570798
vt 0.825127 0.753523
vt 0.847486 0.753523
vt 0.847486 0.855037
vt 0.825127 0.855037
vt 0.825127 0.895643
vt 0.847486 0.895643
vt 0.756367 0.570798
vt 0.756367 0.324845
vt 0.857880 0.570798
vt 0.857880 0.324845
vt 0.898486 0.324845
vt 0.898486 0.570798
vt 1.000000 0.324845
vt 1.000000 0.570798
vn 0.000000 -0.341339 0.939940
vn 0.000000 -0.341339 0.939940
vn 0.000000 -0.341339 0.939940
vn 0.000000 -0.341339 0.939940
vn 0.000000 0.939941 0.341338
vn 0.000000 0.939941 0.341338
vn 0.000000 0.939941 0.341338
vn 0.000000 0.939941 0.341338
vn 0.000000 0.341338 -0.939941
vn 0.000000 0.341338 -0.939941
vn 0.000000 0.341338 -0.939941
vn 0.000000 0.341338 -0.939941
vn 0.000000 -0.939941 -0.341337
vn 0.000000 -0.939941 -0.341337
vn 0.000000 -0.939941 -0.341337
vn 0.000000 -0.939941 -0.341337
vn 1.000000 0.000000 0.000000
vn 1.000000 0.000000 0.000000
vn 1.000000 0.000000 0.000000
vn 1.000000 0.000000 0.000000
vn -1.000000 0.000000 0.000000
vn -1.000000 0.000000 0.000000
vn -1.000000 0.000000 0.000000
vn -1.000000 0.000000 0.000000
vn 0.000000 -0.335797 0.941934
vn 0.000000 -0.335797 0.941934
vn 0.000000 -0.335797 0.941934
vn 0.000000 -0.335797 0.941934
vn -0.011364 -0.341315 0.939880
vn -0.011364 -0.341315 0.939880
vn -0.011364 -0.341315 0.939880
vn -0.011364 -0.341315 0.939880
vn 0.000000 -0.361022 0.932557
vn 0.000000 -0.361022 0.932557
vn 0.000000 -0.361022 0.932557
vn 0.000000 -0.361022 0.932557
vn 0.011363 -0.341316 0.939880
vn 0.011363 -0.341316 0.939880
vn 0.011363 -0.341316 0.939880
vn 0.011363 -0.341316 0.939880
vn 0.000000 -0.956285 -0.292436
vn 0.000000 -0.956285 -0.292436
vn 0.000000 -0.956285 -0.292436
vn 0.000000 -0.956285 -0.292436
vn 1.000000 0.000002 0.000000
vn 1.000000 0.000002 0.000000
vn 1.000000 0.000002 0.000000
vn 1.000000 0.000002 0.000000
vn 0.000000 0.956285 0.292435
vn 0.000000 0.956285 0.292435
vn 0.000000 0.956285 0.292435
vn 0.000000 0.956285 0.292435
vn -1.000000 0.000002 0.000000
vn -1.000000 0.000002 0.000000
vn -1.000000 0.000002 0.000000
vn -1.000000 0.000002 0.000000
vn 0.000000 1.000000 0.000000
vn 0.000000 1.000000 0.000000
vn 0.000000 1.000000 0.000000
vn 0.000000 1.000000 0.000000
vn 0.000000 -1.000000 0.000000
vn 0.000000 -1.000000 0.000000
vn -0.000000 -1.000000 0.000000
vn -0.000000 -1.000000 0.000000
vn 0.000000 -1.000000 0.000000
vn 0.000000 -1.000000 0.000000
vn -0.000000 -1.000000 0.000000
vn -0.000000 -1.000000 0.000000
vn 0.000000 1.000000 0.000000
vn 0.000000 1.000000 0.000000
vn 0.000000 1.000000 0.000000
vn 0.000000 1.000000 0.000000
vn 0.000000 0.000000 -1.000000
vn 0.000000 0.000000 -1.000000
vn 0.000000 0.000000 -1.000000
vn -0.000000 0.000000 -1.000000
vn 0.000000 0.000000 -1.000000
vn 0.000000 0.000000 -1.000000
vn -0.000000 0.000000 -1.000000
vn 0.000000 0.000000 -1.000000
vn 1.000000 0.000000 0.000000
vn 1.000000 0.000000 0.000000
vn 1.000000 0.000000 0.000000
vn 1.000000 0.000000 0.000000
vn -1.000000 0.000000 0.000000
vn -1.000000 0.000000 0.000000
vn -1.000000 0.000000 0.000000
vn -1.000000 0.000000 0.000000
vn 0.000000 0.000000 1.000000
vn 0.000000 0.000000 1.000000
vn 0.000000 0.000000 1.000000
vn 0.000000 0.000000 1.000000
vn 0.000000 0.000000 1.000000
vn 0.000000 0.000000 1.000000
vn 0.000000 0.000000 1.000000
vn 0.000000 0.000000 1.000000
vn 1.000000 0.000000 0.000000
vn 1.000000 0.000000 0.000000
vn 0.000000 0.000000 -1.000000
vn -0.000000 0.000000 -1.000000
vn 0.000000 0.000000 -1.000000
vn -0.000000 0.000000 -1.000000
vn -1.000000 0.000000 0.000000
vn -1.000000 0.000000 0.000000
vn 0.000000 0.000000 -1.000000
vn 0.000000 0.000000 -1.000000
vn 0.000000 0.000000 -1.000000
vn 0.000000 0.000000 -1.000000
vn 1.000000 0.000000 0.000000
vn 1.000000 0.000000 0.000000
vn 0.000000 0.000000 1.000000
vn 0.000000 0.000000 1.000000
vn 0.000000 0.000000 1.000000
vn 0.000000 0.000000 1.000000
vn 0.000000 0.000000 1.000000
vn 0.000000 0.000000 1.000000
vn 0.000000 0.000000 1.000000
vn 0.000000 0.000000 1.000000
vn -1.000000 0.000000 0.000000
vn -1.000000 0.000000 0.000000
vn 0.000000 0.000000 1.000000
vn 0.000000 0.000000 1.000000
vn 0.000000 0.000000 1.000000
vn 0.000000 0.000000 1.000000
vn 0.000000 0.000000 1.000000
vn 0.000000 0.000000 1.000000
vn 0.000000 0.000000 1.000000
vn 0.000000 0.000000 1.000000
vn 1.000000 0.000000 0.000000
vn 1.000000 0.000000 0.000000
vn 0.000000 0.000000 -1.000000
vn -0.000000 0.000000 -1.000000
vn 0.000000 0.000000 -1.000000
vn -0.000000 0.000000 -1.000000
vn -1.000000 0.000000 0.000000
vn -1.000000 0.000000 0.000000
vn 0.000000 0.000000 -1.000000
vn 0.000000 0.000000 -1.000000
vn 0.000000 0.000000 -1.000000
vn 0.000000 0.000000 -1.000000
vn 1.000000 0.000000 0.000000
vn 1.000000 0.000000 0.000000
vn 0.000000 0.000000 1.000000
vn 0.000000 0.000000 1.000000
vn 0.000000 0.000000 1.000000
vn 0.000000 0.000000 1.000000
vn 0.000000 0.000000 1.000000
vn 0.000000 0.000000 1.000000
vn 0.000000 0.000000 1.000000
vn 0.000000 0.000000 1.000000
vn -1.000000 0.000000 0.000000
vn -1.000000 0.000000 0.000000
vn 0.000000 -1.000000 0.000000
vn 0.000000 -1.000000 0.000000
vn 0.000000 0.000000 -1.000000
vn 0.000000 0.000000 -1.000000
vn 0.000000 0.000000 -1.000000
vn 0.000000 0.000000 -1.000000
vn 0.000000 0.000000 -1.000000
vn 0.000000 0.000000 -1.000000
vn 0.000000 1.000000 0.000000
vn 0.000000 1.000000 0.000000
vn 0.000000 0.000000 1.000000
vn 0.000000 0.000000 1.000000
vn 0.000000 0.000000 1.000000
vn 0.000000 0.000000 1.000000
vn 0.000000 0.000000 1.000000
vn 0.000000 0.000000 1.000000
vn 0.000000 0.000000 1.000000
vn 0.000000 0.000000 1.000000
vn 0.000000 0.000000 -1.000000
vn 0.000000 0.000000 -1.000000
vn 0.000000 0.000000 -1.000000
vn 0.000000 -1.000000 0.000000
vn 0.000000 -1.000000 0.000000
vn 0.000000 0.000000 1.000000
vn 0.000000 0.000000 1.000000
vn 0.000000 0.000000 1.000000
vn 0.000000 0.000000 1.000000
vn 0.000000 0.000000 1.000000
vn 0.000000 0.000000 1.000000
vn 0.000000 0.000000 1.000000
vn 0.000000 0.000000 1.000000
vn 0.000000 1.000000 0.000000
vn 0.000000 1.000000 0.000000
vn 0.000000 0.000000 -1.000000
vn 0.000000 0.000000 -1.000000
vn 0.000000 0.000000 -1.000000
vn 0.000000 -1.000000 0.000000
vn 0.000000 -1.000000 0.000000
vn 0.000000 -1.000000 0.000000
vn 0.000000 -1.000000 0.000000
vn 0.000000 1.000000 0.000000
vn 0.000000 1.000000 0.000000
vn 0.000000 1.000000 0.000000
vn 0.000000 1.000000 0.000000
vn 0.000000 -1.000000 0.000000
vn 0.000000 -1.000000 0.000000
vn 0.000000 -1.000000 0.000000
vn 0.000000 -1.000000 0.000000
vn 0.000000 1.000000 0.000000
vn 0.000000 1.000000 0.000000
vn 0.000000 1.000000 0.000000
vn 0.000000 1.000000 0.000000
vn -1.000000 0.000000 0.000000
vn -1.000000 0.000000 0.000000
vn -1.000000 0.000000 0.000000
vn -1.000000 0.000000 0.000000
vn 0.000000 1.000000 0.000000
vn 0.000000 1.000000 0.000000
vn 0.000000 1.000000 0.000000
vn 0.000000 1.000000 0.000000
vn 0.000000 -1.000000 0.000000
vn 0.000000 -1.000000 0.000000
vn 0.000000 -1.000000 0.000000
vn 0.000000 -1.000000 0.000000
vn 1.000000 0.000000 0.000000
vn 1.000000 0.000000 0.000000
vn 1.000000 0.000000 0.000000
vn 1.000000 0.000000 0.000000
vn 0.000000 1.000000 0.000000
vn 0.000000 1.000000 0.000000
vn 0.000000 1.000000 0.000000
vn 0.000000 1.000000 0.000000
vn 0.000000 -1.000000 0.000000
vn 0.000000 -1.000000 0.000000
vn 0.000000 -1.000000 0.000000
vn 0.000000 -1.000000 0.000000
vn 0.000000 -1.000000 0.000000
vn 0.000000 -1.000000 0.000000
vn 0.000000 -1.000000 0.000000
vn 0.000000 -1.000000 0.000000
vn 0.000000 1.000000 0.000000
vn 0.000000 1.000000 0.000000
vn 0.000000 1.000000 0.000000
vn 0.000000 1.000000 0.000000
vn 0.000000 -1.000000 0.000000
vn 0.000000 -1.000000 0.000000
vn 0.000000 -1.000000 0.000000
vn 0.000000 -1.000000 0.000000
vn 0.000000 1.000000 0.000000
vn 0.000000 1.000000 0.000000
vn 0.000000 1.000000 0.000000
vn 0.000000 1.000000 0.000000
vn -1.000000 0.000000 0.000000
vn -1.000000 0.000000 0.000000
vn -1.000000 0.000000 0.000000
vn -1.000000 0.000000 0.000000
vn 0.000000 -1.000000 0.000000
vn 0.000000 -1.000000 0.000000
vn 0.000000 -1.000000 0.000000
vn 0.000000 -1.000000 0.000000
vn 1.000000 0.000000 0.000000
vn 1.000000 0.000000 0.000000
vn 1.000000 0.000000 0.000000
vn 1.000000 0.000000 0.000000
vn 0.000000 1.000000 0.000000
vn 0.000000 1.000000 0.000000
vn 0.000000 1.000000 0.000000
vn 0.000000 1.000000 0.000000
vn 0.000000 1.000000 0.000000
vn 0.000000 1.000000 0.000000
vn 0.000000 1.000000 0.000000
vn 0.000000 1.000000 0.000000
vn 0.000000 -1.000000 0.000000
vn 0.000000 -1.000000 0.000000
vn 0.000000 -1.000000 0.000000
vn 0.000000 -1.000000 0.000000
vn 0.000000 0.000000 1.000000
vn 0.000000 0.000000 1.000000
vn 0.000000 0.000000 1.000000
vn 0.000000 0.000000 1.000000
vn 0.000000 0.000000 1.000000
vn 0.000000 0.000000 1.000000
vn 0.000000 0.000000 1.000000
vn 0.000000 0.000000 1.000000
vn 1.000000 0.000000 0.000000
vn 1.000000 0.000000 0.000000
vn 1.000000 0.000000 0.000000
vn 1.000000 0.000000 0.000000
vn 0.000000 -1.000000 0.000000
vn 0.000000 -1.000000 0.000000
vn 0.000000 -1.000000 0.000000
vn 0.000000 -1.000000 0.000000
vn 0.000000 1.000000 0.000000
vn 0.000000 1.000000 0.000000
vn 0.000000 1.000000 0.000000
vn 0.000000 1.000000 0.000000
vn 0.000000 1.000000 0.000000
vn 0.000000 1.000000 0.000000
vn 0.000000 1.000000 0.000000
vn 0.000000 1.000000 0.000000
vn 0.000000 -1.000000 0.000000
vn 0.000000 -1.000000 0.000000
vn 0.000000 -1.000000 0.000000
vn 0.000000 -1.000000 0.000000
vn 0.000000 1.000000 0.000000
vn 0.000000 1.000000 0.000000
vn 0.000000 1.000000 0.000000
vn 0.000000 1.000000 0.000000
vn -1.000000 0.000000 0.000000
vn -1.000000 0.000000 0.000000
vn -1.000000 0.000000 0.000000
vn -1.000000 0.000000 0.000000
vn 0.000000 -1.000000 0.000000
vn 0.000000 -1.000000 0.000000
vn 0.000000 -1.000000 0.000000
vn 0.000000 -1.000000 0.000000
s off
g pasted__pCube2 group
usemtl initialShadingGroup
f 13/149/1 14/150/2 15/151/3 16/152/4
f 3/57/5 4/58/6 6/59/7 5/60/8
f 5/153/9 6/154/10 8/155/11 7/156/12
f 7/61/13 8/62/14 2/63/15 1/64/16
f 2/1/17 8/2/18 6/3/19 4/4/20
f 7/5/21 1/6/22 3/7/23 5/8/24
f 1/157/25 2/158/26 10/159/27 9/160/28
f 2/158/29 4/161/30 11/162/31 10/159/32
f 4/161/33 3/163/34 12/164/35 11/162/36
f 3/163/37 1/157/38 9/160/39 12/164/40
f 9/65/41 10/66/42 14/67/43 13/68/44
f 10/9/45 11/10/46 15/11/47 14/12/48
f 11/69/49 12/70/50 16/71/51 15/72/52
f 12/13/53 9/14/54 13/15/55 16/16/56
s 1
f 53/73/57 54/74/58 103/75/59 104/76/60
s 2
f 48/91/61 49/92/62 97/93/63 98/94/64
f 37/103/65 38/104/66 83/100/67 84/99/68
s 1
f 42/84/69 43/85/70 93/80/71 94/79/72
s 5
f 76/165/73 40/166/74 96/167/75 81/168/76
f 56/182/77 77/183/78 100/174/79 101/173/80
s 7
f 26/17/81 27/18/82 79/19/83 78/20/84
s 8
f 28/33/85 25/34/86 75/35/87 74/36/88
s 9
f 73/201/89 46/202/90 87/203/91 88/204/92
f 50/211/93 80/212/94 109/208/95 110/207/96
s 7
f 30/23/97 31/24/98 78/20/84 79/19/83
s 5
f 77/183/78 47/193/99 99/184/100 100/174/79
f 39/175/101 76/165/73 81/168/76 82/176/102
s 8
f 32/39/103 29/40/104 74/36/88 75/35/87
s 5
f 40/166/74 41/171/105 95/172/106 96/167/75
f 55/190/107 56/182/77 101/173/80 102/181/108
s 7
f 27/18/82 26/17/81 34/21/109 35/22/110
s 9
f 51/220/111 52/224/112 107/222/113 108/221/114
f 44/213/115 45/209/116 89/217/117 90/218/118
s 8
f 25/34/86 28/33/85 36/37/119 33/38/120
s 13
f 57/225/121 58/226/122 85/227/123 86/228/124
f 59/233/125 60/234/126 111/232/127 112/231/128
s 7
f 18/27/129 24/28/130 31/24/98 30/23/97
s 5
f 47/193/99 48/198/131 98/194/132 99/184/100
f 38/185/133 39/175/101 82/176/102 83/186/134
s 8
f 23/43/135 17/44/136 29/40/104 32/39/103
s 5
f 41/171/105 42/179/137 94/180/138 95/172/106
f 54/195/139 55/190/107 102/181/108 103/189/140
s 7
f 35/22/110 34/21/109 22/25/141 20/26/142
s 15
f 67/237/143 68/238/144 105/239/145 106/240/146
f 65/245/147 66/246/148 91/243/149 92/244/150
s 8
f 33/38/120 36/37/119 19/41/151 21/42/152
s 2
f 23/106/153 38/104/66 37/103/65 17/107/154
s 5
f 32/178/155 39/175/101 38/185/133 23/188/156
f 75/170/157 76/165/73 39/175/101 32/178/155
f 25/169/158 40/166/74 76/165/73 75/170/157
f 33/177/159 41/171/105 40/166/74 25/169/158
f 21/187/160 42/179/137 41/171/105 33/177/159
s 1
f 19/87/161 43/85/70 42/84/69 21/88/162
s 15
f 69/247/163 66/246/148 65/245/147 70/248/164
s 9
f 28/210/165 45/209/116 44/213/115 36/214/166
f 45/209/116 28/210/165 74/206/167 73/201/89
f 29/205/168 46/202/90 73/201/89 74/206/167
s 13
f 61/229/169 58/226/122 57/225/121 62/230/170
s 5
f 31/197/171 47/193/99 77/183/78 78/192/172
f 48/198/131 47/193/99 31/197/171 24/200/173
s 2
f 49/92/62 48/91/61 24/95/174 18/96/175
s 13
f 63/235/176 60/234/126 59/233/125 64/236/177
s 9
f 79/215/178 80/212/94 50/211/93 30/216/179
f 27/219/180 51/220/111 80/212/94 79/215/178
f 35/223/181 52/224/112 51/220/111 27/219/180
s 15
f 68/238/144 67/237/143 71/241/182 72/242/183
s 1
f 54/74/58 53/73/57 20/77/184 22/78/185
s 5
f 34/196/186 55/190/107 54/195/139 22/199/187
f 26/191/188 56/182/77 55/190/107 34/196/186
f 56/182/77 26/191/188 78/192/172 77/183/78
s 17
f 58/105/189 37/103/190 84/99/191 85/102/192
s 18
f 60/109/193 50/110/194 110/111/195 111/112/196
s off
f 17/107/197 37/103/198 58/105/199 61/108/200
f 46/118/201 29/119/202 62/120/203 57/117/204
f 29/40/205 17/44/206 61/47/207 62/48/208
f 30/113/209 50/110/210 60/109/211 63/114/212
f 49/92/213 18/96/214 64/101/215 59/97/216
f 18/27/217 30/23/218 63/31/219 64/32/220
s 18
f 57/117/221 86/116/222 87/115/223 46/118/224
s 17
f 59/97/225 112/98/226 97/93/227 49/92/228
s 19
f 66/121/229 44/122/230 90/123/231 91/124/232
s 20
f 68/81/233 53/73/234 104/76/235 105/82/236
s off
f 36/125/237 44/122/238 66/121/239 69/126/240
f 43/85/241 19/87/242 70/90/243 65/89/244
f 19/41/245 36/37/246 69/45/247 70/46/248
f 52/130/249 35/131/250 71/132/251 67/129/252
f 35/22/253 20/26/254 72/29/255 71/30/256
f 20/77/257 53/73/258 68/81/259 72/83/260
s 20
f 65/89/261 92/86/262 93/80/263 43/85/264
s 19
f 67/129/265 106/128/266 107/127/267 52/130/268
s 17
f 112/98/226 85/102/192 84/99/191 97/93/227
s 19
f 91/124/232 90/123/231 107/127/267 106/128/266
s 2
f 98/94/64 97/93/63 84/99/68 83/100/67
s 5
f 82/176/102 99/184/100 98/194/132 83/186/134
f 100/174/79 99/184/100 82/176/102 81/168/76
f 81/168/76 96/167/75 101/173/80 100/174/79
f 102/181/108 101/173/80 96/167/75 95/172/106
f 103/189/140 102/181/108 95/172/106 94/180/138
s 1
f 104/76/60 103/75/59 94/79/72 93/80/71
s 20
f 105/82/236 104/76/235 93/80/263 92/86/262
s 15
f 91/243/149 106/240/146 105/239/145 92/244/150
s 9
f 89/217/117 108/221/114 107/222/113 90/218/118
f 110/207/96 109/208/95 88/204/92 87/203/91
s 18
f 111/112/196 110/111/195 87/115/223 86/116/222
s 13
f 112/231/128 111/232/127 86/228/124 85/227/123
s 21
f 113/249/269 114/250/270 115/251/271
f 114/250/270 116/252/272 115/251/271
f 116/252/272 117/253/273 115/251/271
f 115/251/271 117/253/273 118/254/274
f 117/253/273 119/255/275 118/254/274
f 119/255/275 120/256/276 118/254/274
s off
f 45/49/277 73/50/278 114/51/279 113/52/280
f 89/133/281 45/134/282 113/135/283 115/136/284
f 73/141/285 88/142/286 116/143/287 114/144/288
f 88/142/289 109/145/290 117/146/291 116/143/292
f 108/137/293 89/133/294 115/136/295 118/138/296
f 109/145/297 80/147/298 119/148/299 117/146/300
f 80/53/301 51/54/302 120/55/303 119/56/304
f 51/139/305 108/137/306 118/138/307 120/140/308
